<svg xmlns="http://www.w3.org/2000/svg" viewBox="0 0 326.55 335.62" style="enable-background:new 0 0 326.551 335.616" xml:space="preserve"><path style="fill:#d8804e" d="M283.14 93.97h-18.86l3.55 44.67c0 .77 6.85 1.39 15.3 1.39 8.46 0 15.32-.62 15.32-1.39L302 93.97h-18.86z"/><path style="opacity:.5;fill:#abac98" d="m291.7 93.97-.03 2.67c-.1 8.92.03 17.85-.15 26.77-.11 5.49-.34 10.97-.8 16.44 4.61-.24 7.73-.7 7.73-1.2L302 93.96h-10.3z"/><path style="fill:#54564c" d="M302 93.97c0 .73-8.44 1.33-18.86 1.33s-18.86-.6-18.86-1.33c0-.73 8.44-1.33 18.86-1.33s18.86.6 18.86 1.33z"/><path style="fill:#d8804e" d="M227.34 121.4c-2.2-8.58 4.45-12.55 4.45-12.55l-18.12-.08v-.02h-3.84v.02l-18.11.08s6.65 3.97 4.45 12.55-11.59 11.82-9.75 33.18c1.83 21.36 14.6 29.94 14.6 29.94h.06c0 .35 4.5.64 10.03.64h1.28c5.54 0 10.04-.29 10.04-.64h.05s12.78-8.58 14.61-29.94-7.55-24.6-9.75-33.18z"/><ellipse style="fill:#b2b6b6" cx="211.78" cy="108.75" rx="20.07" ry="1.27"/><path style="fill:#b29e7a" d="M201.25 170.62h-1.66l.34-1.35.81-.09z"/><path style="fill:#afa0ab" d="m206.61 176.42-.22-.51.47-.07.13.24z"/><path style="fill:#c1a280" d="m196.37 176.71-.32-.76.69-.1.19.35z"/><path style="fill:#adc1bd" d="m207.84 167.79-.44-1.07.97-.14.27.5z"/><path style="fill:#ebe9a2" d="m201.9 181.5-.44-1.08.96-.13.28.49z"/><path style="fill:#b29e7a" d="m220.22 175.95 1.27-1.08.61 1.26-.55.6z"/><path style="fill:#afa0ab" d="m212.39 174.98.5.26-.32.35-.25-.1z"/><path style="fill:#c1a280" d="m220.02 168.15.73.38-.46.51-.38-.14z"/><path style="fill:#adc1bd" d="m217.02 182.37 1.03.53-.65.73-.53-.2z"/><path style="fill:#ebe9a2" d="m212.7 168.07 1.03.54-.65.72-.53-.2z"/><path style="fill:#adc1bd" d="m231.99 163.4 1.28-1.07.6 1.25-.55.6z"/><path style="fill:#afa0ab" d="m224.16 162.44.5.25-.31.35-.26-.09z"/><path style="fill:#c1a280" d="m231.79 155.6.74.38-.47.52-.37-.15z"/><path style="fill:#dbca74" d="m228.79 169.83 1.03.53-.64.72-.54-.2z"/><path style="fill:#ebe9a2" d="m224.48 155.53 1.02.53-.64.72-.53-.2z"/><path style="fill:#adc1bd" d="m197.71 158.9 1.27-1.07.61 1.25-.56.6z"/><path style="fill:#afa0ab" d="m189.88 157.94.49.26-.31.34-.26-.09z"/><path style="fill:#c1a280" d="m197.5 151.1.74.38-.46.52-.38-.15z"/><path style="fill:#dbca74" d="m194.51 165.33 1.03.53-.65.72-.53-.2z"/><path style="fill:#ebe9a2" d="m190.19 151.03 1.03.53-.65.73-.53-.21z"/><path style="fill:#84b5bc" d="m198.54 137.27 1.66-.08-.28 1.36-.8.14z"/><path style="fill:#afa0ab" d="m192.89 131.76.24.5-.46.09-.14-.23z"/><path style="fill:#c1a280" d="m203.11 130.94.35.75-.68.13-.22-.34z"/><path style="fill:#dbca74" d="m192.1 140.44.49 1.04-.95.19-.3-.48z"/><path style="fill:#ebe9a2" d="m197.33 126.45.5 1.05-.96.18-.3-.48z"/><path style="fill:#84b5bc" d="m218.43 129.34-1.23 1.11-.65-1.23.54-.62z"/><path style="fill:#afa0ab" d="m226.29 130.07-.5-.24.3-.36.26.09z"/><path style="fill:#c1a280" d="m218.87 137.13-.74-.35.44-.53.39.13z"/><path style="fill:#dbca74" d="m221.44 122.82-1.05-.5.63-.74.54.18z"/><path style="fill:#ebe9a2" d="m226.19 136.99-1.05-.51.63-.74.54.18z"/><path style="fill:#84b5bc" d="m211.65 121.39 1.16-1.19.73 1.19-.5.65z"/><path style="fill:#afa0ab" d="m203.76 121.19.52.21-.28.37-.26-.07z"/><path style="fill:#c1a280" d="m210.7 113.65.76.3-.41.56-.39-.1z"/><path style="fill:#dbca74" d="m209.08 128.09 1.08.44-.57.78-.55-.15z"/><path style="fill:#ebe9a2" d="m203.41 114.28 1.07.43-.57.78-.55-.14z"/><path style="fill:#84b5bc" d="m213.46 154.75 1.66-.08-.28 1.37-.8.13z"/><path style="fill:#afa0ab" d="m207.82 149.24.23.5-.45.09-.15-.23z"/><path style="fill:#c1a280" d="m218.03 148.42.35.75-.68.13-.21-.34z"/><path style="fill:#dbca74" d="m207.02 157.92.49 1.05-.95.18-.3-.48z"/><path style="fill:#ebe9a2" d="m212.25 143.93.5 1.05-.95.18-.31-.48z"/><path style="fill:#adc1bd" d="m225.32 148.4.1 1.66-1.37-.26-.15-.8z"/><path style="fill:#afa0ab" d="m230.76 142.69-.5.24-.1-.46.23-.14z"/><path style="fill:#c1a280" d="m231.7 152.89-.74.36-.14-.68.34-.22z"/><path style="fill:#dbca74" d="m222.07 142-1.04.51-.2-.95.48-.31z"/><path style="fill:#ebe9a2" d="m236.12 147.06-1.04.51-.19-.96.47-.3z"/><path style="fill:#6abbb7" d="M218.34 23.2a8.45 8.45 0 0 1-2.08-3.56 12.5 12.5 0 0 1-.25-6.77c.31-1.27.85-2.46 1.6-3.55.08-.12.22-.13.33-.03 1.67 1.4 2.62 3.65 3.16 5.72.58 2.24.65 4.54.19 6.83-.27.9-.65 1.77-1.16 2.56a6.1 6.1 0 0 1-1.78-1.2z"/><path style="fill:#6abbb7" d="M215.29 31.34a8.45 8.45 0 0 1-2.09-3.56 12.5 12.5 0 0 1-.25-6.78c.32-1.26.85-2.45 1.6-3.54.09-.13.22-.13.34-.03 1.67 1.4 2.61 3.65 3.15 5.72.59 2.24.66 4.53.19 6.82-.27.9-.65 1.78-1.16 2.57-.66-.3-1.26-.7-1.78-1.2zM212.75 38.87a8.43 8.43 0 0 1-2.75-3.06c-1.1-1.98-1.7-4.3-1.6-6.6.06-1.3.35-2.57.87-3.78.06-.15.2-.18.32-.1 1.92 1.04 3.29 3.05 4.23 4.98a14.97 14.97 0 0 1 1.55 6.64c-.09.94-.29 1.87-.63 2.75a6.1 6.1 0 0 1-1.99-.83zM210.96 46.36a8.45 8.45 0 0 1-3.25-2.53 12.48 12.48 0 0 1-2.74-6.2c-.17-1.3-.11-2.6.18-3.89.03-.15.16-.2.3-.16 2.07.7 3.78 2.43 5.05 4.16a14.97 14.97 0 0 1 2.7 6.27 10 10 0 0 1-.14 2.8 6.08 6.08 0 0 1-2.1-.45zM209.65 55.96a10.35 10.35 0 0 1-3.17-2.03l-.71-.78a13.54 13.54 0 0 1-3.33-6.83c-.22-1.41-.17-2.84.16-4.24.04-.16.19-.22.36-.16 2.45.78 4.5 2.7 6.02 4.6a16.2 16.2 0 0 1 3.27 6.9 10.1 10.1 0 0 1-.11 3.07 7.77 7.77 0 0 1-2.5-.53zM208.9 64.03a9.3 9.3 0 0 1-3.93-2.27 13.74 13.74 0 0 1-3.91-6.37 12.03 12.03 0 0 1-.39-4.26c.02-.17.15-.25.3-.22 2.37.45 4.5 2.09 6.14 3.78 1.77 1.83 3.08 4 3.87 6.45.23 1 .34 2.05.28 3.08-.8.08-1.59.02-2.36-.19z"/><path style="fill:#6abbb7" d="M208.07 72.21a9.3 9.3 0 0 1-3.93-2.28 13.75 13.75 0 0 1-3.91-6.36 12.04 12.04 0 0 1-.38-4.26c.01-.18.14-.25.3-.22 2.37.44 4.49 2.08 6.13 3.78 1.77 1.83 3.08 4 3.88 6.44.23 1.01.33 2.05.27 3.09a6.7 6.7 0 0 1-2.36-.19zM208.54 80.78a9.3 9.3 0 0 1-4.2-1.7 13.75 13.75 0 0 1-4.77-5.76c-.57-1.32-.9-2.72-.97-4.17-.01-.17.1-.27.27-.26 2.4.11 4.73 1.44 6.6 2.9 2 1.56 3.6 3.52 4.73 5.83.37.97.62 1.99.7 3.02-.77.19-1.57.24-2.36.14z"/><path style="fill:#6abbb7" d="M208.15 88.28a9.3 9.3 0 0 1-4.2-1.7 13.76 13.76 0 0 1-4.76-5.77c-.57-1.31-.9-2.71-.98-4.16 0-.18.11-.27.28-.26 2.4.11 4.73 1.44 6.59 2.89 2 1.56 3.6 3.52 4.73 5.84.38.96.62 1.98.71 3.01-.77.2-1.57.24-2.37.15zM209.34 98.7a9.39 9.39 0 0 1-4.37-1.92A15.3 15.3 0 0 1 200 90.4c-.6-1.46-.96-3-1.05-4.6-.01-.18.11-.29.28-.28 2.5.15 4.92 1.63 6.86 3.24a18.39 18.39 0 0 1 4.96 6.47c.4 1.07.66 2.19.76 3.33-.8.2-1.63.25-2.46.14z"/><path style="fill:#6abbb7" d="M228.36 12.28a51.3 51.3 0 0 0-10.23 16 92.65 92.65 0 0 0-5.36 19.05 204.23 204.23 0 0 0-2.4 19.18c-.71 8.3-.7 16.65-.03 24.96.5 6.2 1.33 12.38 2.53 18.5.32.02.64.04.96.08a165.4 165.4 0 0 1-2.35-15.6 153.47 153.47 0 0 1-.51-24.84c.4-6.57 1.1-13.16 2.14-19.66a105.07 105.07 0 0 1 4.7-19.1c2.14-5.97 5.1-11.81 9.19-16.7.5-.6 1.01-1.16 1.54-1.71.14-.15-.04-.3-.18-.16z"/><path style="fill:#6abbb7" d="M214.07 97.06a13.1 13.1 0 0 0 4.56-1.64c.39-.26.77-.52 1.14-.79a18.87 18.87 0 0 0 6.42-7.8c.76-1.77 1.19-3.63 1.28-5.56 0-.22-.15-.34-.38-.33-3.27.25-6.42 2.1-8.93 4.08a22.6 22.6 0 0 0-6.38 7.92 14.5 14.5 0 0 0-.93 4.02c1.06.21 2.14.25 3.22.1z"/><path style="fill:#6abbb7" d="M213.5 87.4c1.62.03 3.22-.32 4.75-.9.42-.18.84-.39 1.25-.59a18.87 18.87 0 0 0 7.57-6.7 15.79 15.79 0 0 0 2.14-5.27c.04-.23-.1-.37-.32-.39-3.26-.28-6.67 1.05-9.47 2.62a22.6 22.6 0 0 0-7.54 6.8c-.7 1.2-1.23 2.49-1.56 3.83 1.01.38 2.08.59 3.17.6z"/><path style="fill:#6abbb7" d="M213.04 78.12c1.4.11 2.79-.1 4.12-.52l1.1-.46a15.92 15.92 0 0 0 6.77-5.47c.95-1.38 1.65-2.9 2.06-4.55.05-.19-.07-.33-.26-.35-2.79-.44-5.76.54-8.23 1.76a19.07 19.07 0 0 0-6.76 5.58 12.75 12.75 0 0 0-1.49 3.29c.85.4 1.76.64 2.7.72z"/><path style="fill:#6abbb7" d="M213.47 71.22c1.4-.07 2.74-.47 4.01-1.06l1.03-.6c2.5-1.5 4.66-3.7 6.02-6.34.77-1.5 1.26-3.1 1.46-4.79.03-.2-.1-.32-.3-.32-2.81-.06-5.63 1.3-7.92 2.85a19.28 19.28 0 0 0-5.99 6.44c-.5 1.1-.88 2.27-1.06 3.47.89.28 1.81.4 2.75.35z"/><path style="fill:#6abbb7" d="M213.91 62.8c1.4-.06 2.75-.47 4.01-1.06l1.03-.6a16.1 16.1 0 0 0 6.02-6.34c.77-1.5 1.26-3.1 1.46-4.79.03-.2-.1-.31-.3-.32-2.8-.06-5.63 1.31-7.92 2.85a19.29 19.29 0 0 0-5.99 6.44 12.9 12.9 0 0 0-1.06 3.47c.89.28 1.81.4 2.75.35z"/><path style="fill:#6abbb7" d="M215.1 54.19c1.4-.07 2.74-.48 4-1.07l1.04-.6c2.5-1.5 4.65-3.7 6.01-6.34.77-1.5 1.27-3.1 1.47-4.78.02-.2-.1-.32-.3-.33-2.81-.06-5.63 1.31-7.92 2.85a19.29 19.29 0 0 0-6 6.44c-.5 1.1-.87 2.27-1.06 3.47.9.28 1.82.4 2.76.36z"/><path style="fill:#6abbb7" d="M216.08 47.71c1.4-.07 2.74-.47 4.01-1.06l1.03-.6c2.5-1.5 4.65-3.7 6.01-6.34.77-1.5 1.27-3.1 1.47-4.79.02-.2-.1-.32-.3-.32-2.81-.06-5.63 1.3-7.92 2.85a19.29 19.29 0 0 0-5.99 6.44c-.51 1.1-.88 2.27-1.06 3.47.88.28 1.81.4 2.75.35z"/><path style="fill:#6abbb7" d="M217.53 40.6c1.4-.08 2.74-.48 4-1.07l1.04-.6c2.5-1.5 4.65-3.7 6.01-6.34.77-1.5 1.27-3.1 1.47-4.79.02-.2-.1-.31-.3-.32-2.81-.06-5.63 1.31-7.92 2.85a19.28 19.28 0 0 0-5.99 6.44c-.51 1.1-.88 2.27-1.06 3.47.88.28 1.81.4 2.75.35zM224.03 20.37a9.59 9.59 0 0 0 2.54-2.6c.18-.31.34-.62.5-.92a13.98 13.98 0 0 0 1.67-7.44c-.09-1.46-.44-2.88-1.05-4.23-.07-.16-.22-.19-.37-.1-2.15 1.23-3.65 3.52-4.68 5.7a16.76 16.76 0 0 0-1.6 7.5c.11 1.05.36 2.09.76 3.07.8-.2 1.55-.53 2.23-.98z"/><path style="fill:#6abbb7" d="M222.95 23.8a8.4 8.4 0 0 0 3.91-1.29 12.48 12.48 0 0 0 4.67-4.92c.6-1.16.98-2.4 1.14-3.72.02-.15-.08-.24-.23-.25-2.19-.04-4.38 1.02-6.15 2.22a14.96 14.96 0 0 0-4.65 5c-.4.85-.68 1.75-.83 2.69.7.21 1.41.3 2.14.27z"/><path style="fill:#6abbb7" d="M220.07 32.59c1.4-.07 2.74-.47 4.01-1.06l1.03-.6a16.1 16.1 0 0 0 6.01-6.34c.77-1.5 1.27-3.1 1.47-4.79.02-.2-.1-.32-.3-.32-2.81-.06-5.63 1.3-7.92 2.85a19.3 19.3 0 0 0-5.99 6.44c-.5 1.1-.88 2.27-1.06 3.47.89.27 1.81.4 2.75.35z"/><path style="fill:#49a199" d="M241.15 48.54a6.32 6.32 0 0 1-.86-2.95 9.34 9.34 0 0 1 1.05-4.96 8.19 8.19 0 0 1 1.81-2.28c.09-.08.19-.05.25.04.96 1.32 1.23 3.12 1.24 4.72a11.2 11.2 0 0 1-1.1 4.98c-.37.61-.8 1.17-1.32 1.65a4.55 4.55 0 0 1-1.07-1.2z"/><path style="fill:#49a199" d="M237.44 53.89a6.3 6.3 0 0 1-.86-2.96 9.34 9.34 0 0 1 1.06-4.96 8.19 8.19 0 0 1 1.8-2.28c.1-.07.2-.05.26.04.95 1.33 1.23 3.13 1.24 4.73a11.2 11.2 0 0 1-1.11 4.98 7.5 7.5 0 0 1-1.31 1.65 4.51 4.51 0 0 1-1.08-1.2zM234.23 58.89a6.31 6.31 0 0 1-1.43-2.73 9.33 9.33 0 0 1 .04-5.07c.28-.93.73-1.8 1.32-2.59.07-.1.17-.09.26-.01 1.2 1.1 1.82 2.82 2.15 4.38.36 1.7.33 3.41-.1 5.1-.23.67-.54 1.3-.95 1.88a4.57 4.57 0 0 1-1.3-.96zM231.56 63.99a6.3 6.3 0 0 1-1.9-2.43 9.33 9.33 0 0 1-.84-5c.1-.97.39-1.9.84-2.78.05-.1.15-.12.24-.06 1.38.88 2.3 2.45 2.9 3.93.65 1.6.93 3.3.81 5.04-.1.7-.3 1.38-.6 2.02-.52-.16-1.01-.4-1.45-.72zM228.85 70.7a7.75 7.75 0 0 1-2.3-2.74 10.11 10.11 0 0 1-1.16-5.55c.1-1.07.4-2.1.9-3.05.05-.11.17-.13.28-.06 1.64 1.02 2.77 2.79 3.52 4.45a12.1 12.1 0 0 1 1.12 5.6 7.6 7.6 0 0 1-.65 2.2 5.9 5.9 0 0 1-1.7-.84zM226.83 76.42a6.94 6.94 0 0 1-2.43-2.36 10.28 10.28 0 0 1-1.67-5.33 9 9 0 0 1 .5-3.16c.04-.13.15-.16.26-.1 1.63.75 2.87 2.33 3.75 3.86.95 1.64 1.5 3.45 1.63 5.37a8.27 8.27 0 0 1-.36 2.3 5.05 5.05 0 0 1-1.68-.58z"/><path style="fill:#49a199" d="M224.74 82.2a6.94 6.94 0 0 1-2.43-2.37 10.28 10.28 0 0 1-1.68-5.33 8.98 8.98 0 0 1 .5-3.16c.05-.12.16-.15.27-.1 1.63.76 2.87 2.33 3.75 3.86.95 1.65 1.5 3.46 1.63 5.38a8.27 8.27 0 0 1-.36 2.29 5 5 0 0 1-1.68-.57zM223.5 88.5a6.95 6.95 0 0 1-2.73-2 10.29 10.29 0 0 1-2.4-5.05 8.98 8.98 0 0 1 .06-3.2c.03-.13.13-.17.25-.14 1.72.52 3.16 1.91 4.25 3.3a12.32 12.32 0 0 1 2.36 5.1c.1.77.09 1.55-.04 2.32-.6 0-1.18-.11-1.74-.33z"/><path style="fill:#49a199" d="M221.86 93.86a6.94 6.94 0 0 1-2.73-2 10.29 10.29 0 0 1-2.4-5.05 8.98 8.98 0 0 1 .05-3.2c.03-.12.13-.17.25-.13 1.72.52 3.16 1.9 4.25 3.3a12.32 12.32 0 0 1 2.36 5.1c.1.76.09 1.55-.04 2.31a5 5 0 0 1-1.74-.33zM220.82 101.64a7.02 7.02 0 0 1-2.82-2.2 11.45 11.45 0 0 1-2.45-5.53c-.17-1.17-.14-2.35.08-3.52.03-.14.14-.2.26-.16 1.78.56 3.27 2.08 4.38 3.6a13.76 13.76 0 0 1 2.41 5.6c.1.85.08 1.7-.05 2.55-.62 0-1.23-.11-1.81-.34z"/><path style="fill:#49a199" d="M250.4 42.46a38.35 38.35 0 0 0-10.33 9.73 69.2 69.2 0 0 0-7.37 12.83c-2 4.39-3.69 8.9-5.26 13.46a114.09 114.09 0 0 0-4.58 18.1c-.74 4.36-1.24 8.77-1.5 13.19h.02a4.52 4.52 0 0 0 .66.03l.1-1.64c.22-3.08.56-6.16 1-9.21.91-6.14 2.3-12.2 4.18-18.1 1.5-4.7 3.2-9.35 5.14-13.87 1.93-4.5 4.15-8.9 6.9-12.98 2.65-3.95 5.85-7.64 9.72-10.44.46-.33.94-.65 1.43-.95.13-.08.02-.23-.1-.15z"/><path style="fill:#49a199" d="M224.55 101.31a9.82 9.82 0 0 0 4.57-.71 14.11 14.11 0 0 0 6.08-4.49 11.8 11.8 0 0 0 1.94-3.8c.05-.15-.04-.27-.2-.3-2.42-.42-5.04.34-7.23 1.32a16.9 16.9 0 0 0-6.07 4.57c-.6.85-1.08 1.78-1.41 2.75.73.35 1.5.57 2.32.66z"/><path style="fill:#49a199" d="M225.9 94.2a9.8 9.8 0 0 0 4.62.02 14.1 14.1 0 0 0 6.71-3.46 11.82 11.82 0 0 0 2.52-3.44c.07-.16 0-.28-.16-.34-2.32-.8-5.03-.46-7.35.17-2.5.67-4.76 1.86-6.71 3.55-.72.74-1.35 1.58-1.82 2.49a7 7 0 0 0 2.18 1.02z"/><path style="fill:#49a199" d="M227.27 87.4a8.14 8.14 0 0 0 3.96.24 11.9 11.9 0 0 0 5.9-2.73 10.4 10.4 0 0 0 2.33-2.92c.07-.13.01-.25-.12-.3-1.95-.83-4.28-.67-6.3-.23a14.26 14.26 0 0 0-5.91 2.8 9.54 9.54 0 0 0-1.68 2.12 5.9 5.9 0 0 0 1.82 1.01z"/><path style="fill:#49a199" d="M228.84 82.47a8.14 8.14 0 0 0 3.95-.28 12.02 12.02 0 0 0 5.52-3.5c.84-.94 1.49-2.02 1.94-3.2.06-.14-.02-.25-.15-.29-2.03-.56-4.33-.08-6.27.62-2.1.75-3.96 1.95-5.52 3.57a9.62 9.62 0 0 0-1.4 2.32c.59.37 1.24.62 1.93.76z"/><path style="fill:#49a199" d="M230.7 76.45a8.13 8.13 0 0 0 3.95-.28 12.02 12.02 0 0 0 5.52-3.5c.83-.94 1.49-2.02 1.94-3.2.05-.14-.02-.25-.16-.3-2.03-.55-4.32-.07-6.26.63-2.1.75-3.96 1.95-5.52 3.57a9.68 9.68 0 0 0-1.4 2.32c.59.36 1.23.62 1.92.76z"/><path style="fill:#49a199" d="M233.13 70.42a8.13 8.13 0 0 0 3.96-.28 12.02 12.02 0 0 0 5.52-3.5c.83-.94 1.48-2.02 1.94-3.2.05-.15-.02-.26-.16-.3-2.03-.55-4.33-.08-6.27.62-2.09.76-3.95 1.96-5.52 3.58a9.66 9.66 0 0 0-1.4 2.32c.6.36 1.24.62 1.93.76z"/><path style="fill:#49a199" d="M235.03 65.9a8.14 8.14 0 0 0 3.95-.28 12.02 12.02 0 0 0 5.52-3.5c.83-.94 1.49-2.01 1.94-3.2.06-.14-.02-.25-.16-.29-2.03-.56-4.32-.08-6.26.62-2.1.76-3.96 1.95-5.52 3.57a9.66 9.66 0 0 0-1.4 2.32c.59.37 1.24.63 1.93.76z"/><path style="fill:#49a199" d="M237.38 61.01a8.14 8.14 0 0 0 3.96-.28 12.02 12.02 0 0 0 5.52-3.5c.83-.94 1.48-2.02 1.93-3.2.06-.15-.01-.25-.15-.3-2.03-.55-4.33-.07-6.27.63-2.1.75-3.95 1.95-5.52 3.57a9.66 9.66 0 0 0-1.4 2.32c.59.36 1.24.62 1.93.76zM245.8 47.53a7.16 7.16 0 0 0 2.84-1.99 10.46 10.46 0 0 0 2.57-5.09c.2-1.07.2-2.17 0-3.25-.02-.13-.12-.18-.24-.15-1.78.5-3.3 1.89-4.44 3.28a12.52 12.52 0 0 0-2.53 5.15 8.32 8.32 0 0 0 0 2.36c.6 0 1.21-.1 1.8-.3z"/><path style="fill:#49a199" d="M244.38 49.83a6.3 6.3 0 0 0 3.07-.22 9.34 9.34 0 0 0 4.28-2.72 8.16 8.16 0 0 0 1.5-2.48c.05-.11 0-.2-.11-.23-1.58-.43-3.36-.06-4.87.48a11.19 11.19 0 0 0-4.28 2.78 7.49 7.49 0 0 0-1.1 1.8c.47.28.97.48 1.5.59z"/><path style="fill:#49a199" d="M240.68 55.67a8.13 8.13 0 0 0 3.96-.28 12.02 12.02 0 0 0 5.52-3.5c.83-.94 1.48-2.02 1.94-3.2.05-.14-.02-.25-.16-.3-2.03-.55-4.32-.07-6.26.63-2.1.75-3.96 1.95-5.52 3.57a9.66 9.66 0 0 0-1.4 2.32c.59.36 1.23.62 1.92.76zM178.98 34.84a8.43 8.43 0 0 0 1.15-3.96c.14-2.25-.32-4.6-1.41-6.63a10.93 10.93 0 0 0-2.42-3.04c-.12-.1-.25-.08-.34.05-1.27 1.77-1.64 4.17-1.65 6.32-.02 2.3.47 4.55 1.48 6.66.48.8 1.07 1.56 1.75 2.2a6.12 6.12 0 0 0 1.44-1.6z"/><path style="fill:#49a199" d="M183.93 41.98a8.43 8.43 0 0 0 1.16-3.95c.14-2.26-.33-4.6-1.42-6.64a10.93 10.93 0 0 0-2.41-3.04c-.12-.1-.25-.07-.34.05-1.27 1.77-1.64 4.18-1.66 6.32-.02 2.31.48 4.56 1.49 6.66.48.81 1.06 1.56 1.75 2.2a6.13 6.13 0 0 0 1.43-1.6zM188.24 48.67a8.42 8.42 0 0 0 1.91-3.64c.6-2.19.6-4.58-.06-6.79a10.92 10.92 0 0 0-1.76-3.46c-.1-.13-.23-.12-.34-.02-1.6 1.48-2.44 3.77-2.89 5.86-.48 2.27-.44 4.56.13 6.83.31.89.74 1.74 1.28 2.5a6.07 6.07 0 0 0 1.73-1.28zM191.8 55.5a8.42 8.42 0 0 0 2.54-3.26c.96-2.04 1.4-4.4 1.14-6.68-.15-1.3-.53-2.55-1.13-3.72-.07-.14-.2-.16-.33-.08-1.84 1.17-3.07 3.27-3.88 5.26a14.97 14.97 0 0 0-1.08 6.74c.15.92.42 1.84.82 2.7.69-.21 1.34-.53 1.92-.97zM195.43 64.48c1.04-.75 1.87-1.7 2.57-2.75l.5-.93c1.2-2.29 1.79-4.9 1.55-7.42-.13-1.43-.53-2.8-1.19-4.08-.07-.15-.23-.17-.38-.07-2.2 1.36-3.7 3.72-4.72 5.94-1.09 2.4-1.6 4.9-1.48 7.48.14 1.02.42 2.02.86 2.95a7.8 7.8 0 0 0 2.29-1.12zM198.13 72.13a9.29 9.29 0 0 0 3.25-3.17 13.75 13.75 0 0 0 2.24-7.13c.03-1.44-.2-2.86-.67-4.23-.06-.16-.2-.2-.35-.13-2.19 1-3.84 3.12-5.02 5.16a16.49 16.49 0 0 0-2.18 7.2c.02 1.03.17 2.07.48 3.06a6.72 6.72 0 0 0 2.25-.77z"/><path style="fill:#49a199" d="M200.93 79.85a9.29 9.29 0 0 0 3.25-3.17 13.75 13.75 0 0 0 2.24-7.13c.03-1.43-.2-2.85-.67-4.22-.06-.17-.2-.2-.35-.14-2.19 1.01-3.84 3.12-5.02 5.16a16.49 16.49 0 0 0-2.18 7.2c.02 1.03.17 2.07.48 3.06a6.7 6.7 0 0 0 2.25-.76zM202.57 88.28a9.28 9.28 0 0 0 3.66-2.69 13.75 13.75 0 0 0 3.21-6.74c.23-1.42.2-2.86-.07-4.28-.04-.17-.17-.23-.33-.19-2.3.7-4.24 2.56-5.69 4.42-1.56 2-2.63 4.3-3.16 6.82-.13 1.03-.12 2.07.05 3.1.8-.01 1.58-.16 2.33-.44z"/><path style="fill:#49a199" d="M204.78 95.45a9.28 9.28 0 0 0 3.66-2.68 13.75 13.75 0 0 0 3.2-6.75c.24-1.42.21-2.85-.07-4.28-.03-.17-.17-.23-.33-.18-2.3.7-4.23 2.55-5.68 4.41a16.5 16.5 0 0 0-3.17 6.82c-.12 1.03-.11 2.08.06 3.1.8 0 1.58-.15 2.33-.44zM206.17 105.84a9.4 9.4 0 0 0 3.77-2.92 15.3 15.3 0 0 0 3.28-7.4c.22-1.57.19-3.15-.12-4.72-.03-.19-.17-.26-.34-.2-2.38.74-4.37 2.78-5.86 4.81a18.4 18.4 0 0 0-3.22 7.49c-.12 1.13-.1 2.28.07 3.41.83 0 1.64-.16 2.42-.47z"/><path style="fill:#49a199" d="M204.9 110c-.37-3.66-.85-7.3-1.46-10.93a152.4 152.4 0 0 0-6.13-24.2c-2.1-6.08-4.36-12.13-7.03-18-2.73-6-5.9-11.86-9.85-17.16a51.3 51.3 0 0 0-13.83-13c-.17-.12-.31.08-.14.19.65.4 1.3.83 1.91 1.28 5.17 3.74 9.46 8.68 13.01 13.95a105.01 105.01 0 0 1 9.22 17.36c2.59 6.06 4.88 12.27 6.88 18.54a153.57 153.57 0 0 1 6.51 31.85c.3.07.6.1.91.11z"/><path style="fill:#49a199" d="M201.18 105.41a13.1 13.1 0 0 1-4.82-.47l-1.3-.49a18.87 18.87 0 0 1-8.12-6 15.8 15.8 0 0 1-2.6-5.07c-.07-.22.06-.37.28-.41 3.23-.57 6.73.46 9.66 1.77a22.58 22.58 0 0 1 8.12 6.11c.8 1.14 1.44 2.37 1.88 3.68-.97.47-2 .77-3.1.88z"/><path style="fill:#49a199" d="M199.39 95.9c-1.58.43-3.21.48-4.83.3-.46-.08-.92-.17-1.36-.27-3.32-.7-6.51-2.3-8.98-4.64a15.8 15.8 0 0 1-3.37-4.6c-.1-.2 0-.37.22-.45 3.1-1.06 6.72-.6 9.82.23 3.34.9 6.37 2.49 8.98 4.75.96.99 1.8 2.1 2.44 3.33a9.35 9.35 0 0 1-2.92 1.36z"/><path style="fill:#49a199" d="M197.55 86.8a10.9 10.9 0 0 1-4.12.5l-1.18-.17a15.92 15.92 0 0 1-7.9-3.66 13.91 13.91 0 0 1-3.1-3.9c-.1-.18-.03-.33.15-.41 2.6-1.1 5.72-.88 8.42-.3 2.9.63 5.57 1.89 7.91 3.76.88.83 1.64 1.77 2.25 2.82a7.94 7.94 0 0 1-2.43 1.35z"/><path style="fill:#49a199" d="M195.45 80.21c-1.37.28-2.77.21-4.15-.04-.39-.1-.77-.22-1.14-.33a16.08 16.08 0 0 1-7.39-4.68 14.07 14.07 0 0 1-2.59-4.29c-.07-.18.02-.33.21-.38 2.71-.75 5.79-.11 8.38.83a19.28 19.28 0 0 1 7.38 4.78c.77.94 1.41 1.98 1.88 3.1-.79.48-1.66.83-2.58 1.01z"/><path style="fill:#49a199" d="M192.96 72.16c-1.37.27-2.77.21-4.15-.05l-1.14-.33a16.08 16.08 0 0 1-7.38-4.68 14.08 14.08 0 0 1-2.6-4.28c-.07-.19.03-.33.21-.39 2.72-.74 5.79-.1 8.38.83a19.28 19.28 0 0 1 7.39 4.78c.76.94 1.4 1.98 1.88 3.1a7.8 7.8 0 0 1-2.59 1.02z"/><path style="fill:#49a199" d="M189.7 64.1c-1.37.27-2.77.2-4.14-.06-.39-.1-.77-.21-1.15-.33a16.08 16.08 0 0 1-7.38-4.68 14.08 14.08 0 0 1-2.6-4.28c-.07-.19.03-.33.22-.38 2.71-.75 5.78-.11 8.38.82a19.28 19.28 0 0 1 7.38 4.78c.76.94 1.4 1.99 1.88 3.1-.8.5-1.66.84-2.58 1.02z"/><path style="fill:#49a199" d="M187.17 58.06c-1.37.27-2.77.2-4.15-.05l-1.14-.33a16.08 16.08 0 0 1-7.39-4.68 14.07 14.07 0 0 1-2.59-4.29c-.07-.18.03-.33.21-.38 2.71-.75 5.79-.11 8.38.83a19.28 19.28 0 0 1 7.38 4.78c.77.94 1.41 1.98 1.88 3.1-.79.49-1.66.83-2.58 1.02z"/><path style="fill:#49a199" d="M184.03 51.5c-1.38.28-2.78.22-4.15-.04-.39-.1-.77-.22-1.15-.33a16.08 16.08 0 0 1-7.38-4.68 14.06 14.06 0 0 1-2.6-4.28c-.07-.2.03-.34.22-.39 2.71-.74 5.78-.1 8.38.83a19.28 19.28 0 0 1 7.38 4.78c.76.94 1.4 1.98 1.88 3.1-.8.49-1.66.84-2.59 1.02zM172.77 33.48a9.57 9.57 0 0 1-3.81-2.66 13.99 13.99 0 0 1-3.44-6.8c-.26-1.44-.27-2.9 0-4.36.02-.17.16-.24.33-.2 2.38.67 4.4 2.53 5.93 4.4a16.74 16.74 0 0 1 3.39 6.88c.14 1.04.16 2.1 0 3.15-.81 0-1.62-.13-2.4-.4z"/><path style="fill:#49a199" d="M174.66 36.55a8.42 8.42 0 0 1-4.1-.3c-2.17-.64-4.21-1.9-5.73-3.62-.87-.98-1.54-2.1-2.02-3.33-.05-.14.02-.26.17-.3 2.1-.58 4.49-.08 6.5.65 2.17.78 4.1 2.02 5.73 3.7.59.74 1.09 1.54 1.46 2.41-.62.38-1.3.65-2 .8z"/><path style="fill:#49a199" d="M179.6 44.37c-1.37.27-2.77.2-4.14-.05-.4-.1-.77-.22-1.15-.33a16.08 16.08 0 0 1-7.38-4.68 14.07 14.07 0 0 1-2.6-4.28c-.07-.2.03-.34.22-.39 2.7-.74 5.78-.1 8.38.83a19.28 19.28 0 0 1 7.38 4.78c.76.94 1.4 1.98 1.88 3.1-.8.49-1.66.83-2.59 1.02z"/><path style="fill:#d8804e" d="M100.65 119.26c-5.29-7.11-.63-13.3-.63-13.3l-16.8 6.78-.01-.01-1.77.73-1.79.72.01.02c-5.82 2.4-16.73 6.94-16.73 6.94s7.65 1.15 8.86 9.92c1.22 8.78-6.24 15.33 3.54 34.4 9.79 19.08 24.86 22.19 24.86 22.19l.05-.02c.14.32 4.4-1.12 9.53-3.21l.6-.25.58-.24c5.13-2.1 9.18-4.06 9.05-4.39l.05-.02s8.58-12.78 2.19-33.24c-6.4-20.46-16.3-19.91-21.6-27.02z"/><path style="fill:#b2b6b6" d="M100.04 105.84c.26.65-7.84 4.58-18.1 8.78-10.25 4.2-18.79 7.07-19.05 6.42-.27-.65 7.83-4.58 18.1-8.78 10.25-4.2 18.78-7.07 19.05-6.42z"/><path style="fill:#b29e7a" d="m95.14 174.7-1.54.63-.19-1.38.71-.4z"/><path style="fill:#afa0ab" d="m102.29 178.04-.39-.4.4-.23.22.17z"/><path style="fill:#c1a280" d="m92.92 182.18-.58-.58.6-.35.32.25z"/><path style="fill:#adc1bd" d="m100.17 169.58-.81-.82.84-.49.44.35z"/><path style="fill:#ebe9a2" d="m99.86 184.52-.82-.83.84-.49.45.36z"/><path style="fill:#b29e7a" d="m114.72 172.45.76-1.48 1.04.93-.29.76z"/><path style="fill:#afa0ab" d="m107.1 174.52.56.05-.16.44-.27.01z"/><path style="fill:#c1a280" d="m111.57 165.3.83.07-.24.66-.4.01z"/><path style="fill:#adc1bd" d="m114.18 179.6 1.16.1-.33.92-.56.02z"/><path style="fill:#ebe9a2" d="m104.77 168 1.16.11-.33.91-.56.02z"/><path style="fill:#adc1bd" d="m120.86 156.38.77-1.48 1.04.93-.29.76z"/><path style="fill:#afa0ab" d="m113.25 158.45.55.05-.15.44-.28.01z"/><path style="fill:#c1a280" d="m117.72 149.23.82.07-.23.66-.4.01z"/><path style="fill:#dbca74" d="m120.33 163.53 1.16.11-.33.91-.57.02z"/><path style="fill:#ebe9a2" d="m110.92 151.93 1.15.11-.32.91-.57.02z"/><path style="fill:#adc1bd" d="m87.42 165.19.77-1.47 1.04.93-.29.76z"/><path style="fill:#afa0ab" d="m79.81 167.27.55.05-.15.44h-.27z"/><path style="fill:#c1a280" d="m84.28 158.05.82.07-.23.66-.4.01z"/><path style="fill:#dbca74" d="m86.89 172.35 1.16.1-.33.92-.57.02z"/><path style="fill:#ebe9a2" d="m77.48 160.75 1.16.1-.33.92-.57.02z"/><path style="fill:#84b5bc" d="m80 144.86 1.51-.71.26 1.37-.69.43z"/><path style="fill:#afa0ab" d="m72.69 141.89.41.37-.39.26-.22-.16z"/><path style="fill:#c1a280" d="m81.83 137.27.61.56-.58.38-.32-.24z"/><path style="fill:#dbca74" d="m75.24 150.23.85.78-.81.53-.46-.33z"/><path style="fill:#ebe9a2" d="m74.79 135.29.85.79-.81.53-.46-.33z"/><path style="fill:#84b5bc" d="m95.41 129.98-.72 1.5-1.07-.9.27-.77z"/><path style="fill:#afa0ab" d="m102.96 127.68-.56-.03.15-.45.27-.01z"/><path style="fill:#c1a280" d="m98.77 137.03-.82-.05.21-.66.4-.02z"/><path style="fill:#dbca74" d="m95.73 122.81-1.16-.06.3-.93.56-.03z"/><path style="fill:#ebe9a2" d="m105.49 134.12-1.16-.07.3-.92.56-.03z"/><path style="fill:#84b5bc" d="m86.13 125.2.62-1.55 1.12.83-.21.79z"/><path style="fill:#afa0ab" d="M78.75 127.99h.56l-.12.45-.27.04z"/><path style="fill:#c1a280" d="m82.31 118.39.83-.01-.17.67-.4.05z"/><path style="fill:#dbca74" d="m86.29 132.37 1.16-.01-.24.95-.56.07z"/><path style="fill:#ebe9a2" d="m75.8 121.73 1.16-.01-.23.95-.57.07z"/><path style="fill:#84b5bc" d="m100.43 155.39 1.51-.71.26 1.37-.7.43z"/><path style="fill:#afa0ab" d="m93.12 152.42.41.37-.39.26-.22-.16z"/><path style="fill:#c1a280" d="m102.26 147.8.61.56-.58.38-.33-.24z"/><path style="fill:#dbca74" d="m95.67 160.76.85.78-.81.53-.46-.33z"/><path style="fill:#ebe9a2" d="m95.22 145.82.85.79-.81.53-.46-.33z"/><path style="fill:#adc1bd" d="m109 145.02.73 1.5-1.37.27-.44-.68z"/><path style="fill:#afa0ab" d="m111.87 137.67-.37.42-.26-.39.16-.22z"/><path style="fill:#c1a280" d="m116.61 146.75-.55.62-.38-.58.23-.33z"/><path style="fill:#dbca74" d="m103.57 140.33-.77.86-.54-.8.32-.47z"/><path style="fill:#ebe9a2" d="m118.49 139.68-.77.87-.54-.81.33-.46z"/><path style="fill:#6abbb7" d="M55.14 31.77a8.44 8.44 0 0 1-3.27-2.5 12.49 12.49 0 0 1-2.8-6.17c-.19-1.3-.14-2.6.14-3.89.03-.15.15-.2.3-.16 2.08.67 3.8 2.4 5.08 4.1a14.96 14.96 0 0 1 2.76 6.25 10 10 0 0 1-.1 2.81 6.06 6.06 0 0 1-2.1-.44z"/><path style="fill:#6abbb7" d="M55.4 40.47a8.44 8.44 0 0 1-3.28-2.5 12.49 12.49 0 0 1-2.8-6.18c-.19-1.3-.14-2.6.14-3.88.03-.16.15-.21.3-.16 2.08.67 3.8 2.39 5.09 4.1a14.96 14.96 0 0 1 2.75 6.24c.1.94.07 1.89-.1 2.81a6.07 6.07 0 0 1-2.1-.43zM55.9 48.4a8.44 8.44 0 0 1-3.7-1.8 12.5 12.5 0 0 1-3.98-5.49 10.94 10.94 0 0 1-.64-3.83c0-.16.12-.24.27-.22 2.17.24 4.2 1.59 5.8 3a14.97 14.97 0 0 1 3.94 5.58c.28.9.45 1.83.47 2.77-.72.13-1.44.13-2.16 0zM57.08 56.01a8.43 8.43 0 0 1-3.97-1.11 12.5 12.5 0 0 1-4.88-4.7 10.92 10.92 0 0 1-1.3-3.67c-.03-.15.06-.25.21-.26 2.18-.14 4.42.82 6.25 1.94a14.97 14.97 0 0 1 4.86 4.78c.44.83.77 1.73.95 2.65-.68.24-1.4.37-2.12.37zM59.5 65.4c-1.29 0-2.53-.26-3.7-.69l-.96-.45a13.54 13.54 0 0 1-5.66-5.06 11.03 11.03 0 0 1-1.46-3.98c-.02-.17.09-.28.27-.3 2.57-.2 5.19.8 7.32 2 2.3 1.27 4.2 3 5.64 5.13.49.9.86 1.88 1.05 2.89-.8.28-1.65.44-2.5.45zM61.86 73.15a9.28 9.28 0 0 1-4.5-.62 13.76 13.76 0 0 1-6.03-4.4 12.04 12.04 0 0 1-1.97-3.8c-.05-.17.04-.3.2-.33 2.36-.48 4.94.24 7.1 1.18a16.5 16.5 0 0 1 6.03 4.5 11 11 0 0 1 1.43 2.75c-.7.37-1.47.62-2.26.72z"/><path style="fill:#6abbb7" d="M64.19 81.03a9.28 9.28 0 0 1-4.5-.62 13.76 13.76 0 0 1-6.03-4.4 12.04 12.04 0 0 1-1.97-3.8c-.05-.17.04-.3.2-.33 2.36-.48 4.94.24 7.1 1.18a16.5 16.5 0 0 1 6.03 4.5c.6.84 1.1 1.77 1.43 2.75a6.7 6.7 0 0 1-2.26.72zM67.87 88.79a9.28 9.28 0 0 1-4.54.01 13.75 13.75 0 0 1-6.59-3.53c-1.02-1-1.86-2.17-2.48-3.48-.07-.16 0-.3.16-.35 2.26-.8 4.92-.45 7.2.18 2.45.69 4.67 1.9 6.59 3.61.7.76 1.32 1.6 1.8 2.53-.65.46-1.37.81-2.14 1.03z"/><path style="fill:#6abbb7" d="M70.35 95.87a9.27 9.27 0 0 1-4.53.01 13.75 13.75 0 0 1-6.6-3.52c-1.02-1-1.85-2.18-2.47-3.5-.08-.15 0-.28.15-.34 2.27-.8 4.93-.45 7.2.18 2.45.69 4.67 1.9 6.6 3.61.7.76 1.32 1.6 1.79 2.53a6.7 6.7 0 0 1-2.14 1.03zM75.4 105.06a9.38 9.38 0 0 1-4.77-.12 15.3 15.3 0 0 1-7.04-4.01 14.07 14.07 0 0 1-2.7-3.86c-.08-.17-.01-.31.15-.37 2.36-.81 5.17-.35 7.58.4 2.6.81 4.97 2.2 7.04 4.1.76.85 1.43 1.79 1.96 2.8-.67.5-1.41.85-2.22 1.06z"/><path style="fill:#6abbb7" d="M60.28 17.88a51.31 51.31 0 0 0-3.41 18.68c-.04 6.6.88 13.2 2.25 19.66 1.34 6.3 3.1 12.51 5.03 18.66 2.5 7.95 5.68 15.68 9.43 23.11 2.8 5.56 5.93 10.96 9.35 16.16.3-.1.61-.2.92-.28a165.6 165.6 0 0 1-8.08-13.55 153.43 153.43 0 0 1-9.88-22.8 206.88 206.88 0 0 1-5.47-19c-1.5-6.4-2.6-12.89-2.88-19.45-.28-6.35.25-12.87 2.19-18.95.23-.73.5-1.45.77-2.16.08-.2-.15-.27-.22-.08z"/><path style="fill:#6abbb7" d="M79.16 101.75c1.4-.82 2.58-1.96 3.6-3.23l.75-1.17a18.86 18.86 0 0 0 2.98-9.65c.04-1.92-.27-3.81-.92-5.62-.07-.22-.27-.27-.47-.17-2.93 1.46-5.15 4.37-6.72 7.16a22.59 22.59 0 0 0-2.9 9.74c.02 1.38.24 2.76.66 4.07a9.38 9.38 0 0 0 3.02-1.13z"/><path style="fill:#6abbb7" d="M74.96 93.04a13.1 13.1 0 0 0 4.07-2.63c.32-.34.63-.68.93-1.03a18.87 18.87 0 0 0 4.47-9.06c.34-1.89.33-3.8-.02-5.7-.04-.22-.22-.3-.44-.23-3.13.98-5.77 3.5-7.77 6a22.61 22.61 0 0 0-4.41 9.16c-.19 1.37-.2 2.77.01 4.13a9.35 9.35 0 0 0 3.16-.64z"/><path style="fill:#6abbb7" d="M71.03 84.61a10.88 10.88 0 0 0 3.62-2.03l.84-.84a15.92 15.92 0 0 0 4.2-7.64c.36-1.63.42-3.3.18-4.98-.03-.2-.19-.28-.37-.23-2.75.65-5.13 2.68-6.95 4.75a19.07 19.07 0 0 0-4.15 7.72c-.2 1.19-.26 2.4-.13 3.6.93.05 1.86-.06 2.76-.35z"/><path style="fill:#6abbb7" d="M68.81 78.07c1.27-.6 2.36-1.47 3.31-2.5l.73-.94a16.1 16.1 0 0 0 3.17-8.15c.14-1.68 0-3.35-.46-4.99-.05-.2-.22-.25-.4-.18-2.62 1-4.72 3.34-6.25 5.64a19.28 19.28 0 0 0-3.1 8.22 12.9 12.9 0 0 0 .32 3.62 7.86 7.86 0 0 0 2.69-.72z"/><path style="fill:#6abbb7" d="M66.04 70.11c1.27-.6 2.36-1.47 3.3-2.5.26-.31.5-.63.73-.94a16.09 16.09 0 0 0 3.17-8.15c.15-1.67 0-3.35-.46-4.99-.05-.19-.21-.25-.4-.18-2.62 1.01-4.71 3.34-6.25 5.64a19.29 19.29 0 0 0-3.1 8.23 12.9 12.9 0 0 0 .33 3.6 7.87 7.87 0 0 0 2.68-.7z"/><path style="fill:#6abbb7" d="M63.87 61.69c1.27-.6 2.36-1.48 3.31-2.5.25-.32.5-.63.73-.95a16.08 16.08 0 0 0 3.16-8.15c.15-1.67 0-3.34-.45-4.98-.06-.2-.22-.26-.4-.19-2.63 1.01-4.72 3.35-6.25 5.64a19.28 19.28 0 0 0-3.11 8.23 12.9 12.9 0 0 0 .33 3.61 7.87 7.87 0 0 0 2.68-.71z"/><path style="fill:#6abbb7" d="M62.33 55.32c1.27-.6 2.36-1.47 3.3-2.5.26-.31.5-.63.74-.94a16.08 16.08 0 0 0 3.16-8.15c.15-1.67 0-3.35-.45-4.99-.06-.19-.22-.25-.4-.18-2.63 1.01-4.72 3.34-6.26 5.64a19.28 19.28 0 0 0-3.1 8.23 12.9 12.9 0 0 0 .33 3.6 7.87 7.87 0 0 0 2.68-.7z"/><path style="fill:#6abbb7" d="M60.98 48.19c1.26-.6 2.35-1.48 3.3-2.5.25-.32.5-.63.73-.95a16.09 16.09 0 0 0 3.17-8.14c.14-1.68 0-3.35-.46-5-.05-.19-.22-.25-.4-.18-2.62 1.01-4.72 3.35-6.25 5.64a19.28 19.28 0 0 0-3.1 8.23 12.9 12.9 0 0 0 .32 3.61 7.84 7.84 0 0 0 2.69-.71zM59.34 27a9.57 9.57 0 0 0 1.48-4.4c.27-2.54-.14-5.2-1.27-7.52-.64-1.32-1.5-2.5-2.58-3.51-.12-.12-.27-.1-.38.04-1.52 1.95-2.05 4.64-2.17 7.05-.13 2.6.32 5.14 1.36 7.55.5.93 1.12 1.8 1.86 2.55a7.02 7.02 0 0 0 1.7-1.76z"/><path style="fill:#6abbb7" d="M59.63 30.6a8.44 8.44 0 0 0 3.14-2.68 12.5 12.5 0 0 0 2.45-6.33c.12-1.3 0-2.6-.35-3.87-.04-.15-.17-.2-.31-.14-2.04.79-3.66 2.6-4.85 4.38a14.98 14.98 0 0 0-2.41 6.38c-.05.94.03 1.89.25 2.8a6.09 6.09 0 0 0 2.08-.55z"/><path style="fill:#6abbb7" d="M60.3 39.82c1.26-.6 2.35-1.48 3.3-2.5.26-.32.5-.64.73-.95a16.08 16.08 0 0 0 3.17-8.15c.14-1.67 0-3.34-.46-4.98-.05-.2-.22-.26-.4-.19-2.62 1.01-4.72 3.35-6.25 5.64a19.28 19.28 0 0 0-3.1 8.23 12.9 12.9 0 0 0 .32 3.61 7.85 7.85 0 0 0 2.69-.71z"/><path style="fill:#49a199" d="M85.85 46.6a6.29 6.29 0 0 1-1.92-2.4 9.34 9.34 0 0 1-.9-5c.1-.97.37-1.9.81-2.79.05-.1.15-.12.25-.06 1.38.87 2.32 2.43 2.94 3.9.66 1.6.96 3.29.85 5.03-.1.7-.29 1.38-.58 2.02-.52-.14-1.01-.38-1.45-.7z"/><path style="fill:#49a199" d="M84.44 52.95a6.29 6.29 0 0 1-1.92-2.41 9.34 9.34 0 0 1-.9-5c.1-.96.38-1.9.82-2.78.05-.1.15-.12.24-.06 1.39.86 2.32 2.42 2.94 3.9.67 1.6.96 3.29.86 5.03-.1.7-.3 1.38-.59 2.02-.52-.14-1-.38-1.45-.7zM83.36 58.8A6.32 6.32 0 0 1 81 56.82a9.34 9.34 0 0 1-1.88-4.72c-.1-.97-.01-1.94.24-2.9.03-.1.13-.14.23-.1 1.53.57 2.76 1.92 3.66 3.24.97 1.43 1.6 3.03 1.84 4.76a7.5 7.5 0 0 1-.17 2.1 4.6 4.6 0 0 1-1.56-.4zM82.82 64.53A6.3 6.3 0 0 1 80.15 63a9.34 9.34 0 0 1-2.68-4.31 8.16 8.16 0 0 1-.28-2.9c.01-.1.1-.16.2-.14 1.61.3 3.06 1.4 4.18 2.54a11.2 11.2 0 0 1 2.66 4.36c.16.68.23 1.39.2 2.1-.54.05-1.08.01-1.61-.13zM82.86 71.77a7.75 7.75 0 0 1-3.17-1.67 10.12 10.12 0 0 1-3.18-4.7 8.25 8.25 0 0 1-.33-3.16c.01-.13.11-.18.25-.16 1.9.32 3.61 1.53 4.94 2.78a12.1 12.1 0 0 1 3.15 4.75c.19.75.28 1.52.24 2.29-.64.06-1.28.02-1.9-.13zM83.15 77.83a6.95 6.95 0 0 1-3.14-1.27 10.3 10.3 0 0 1-3.57-4.3 8.99 8.99 0 0 1-.73-3.12c-.01-.13.08-.2.2-.2 1.8.09 3.54 1.08 4.93 2.16 1.5 1.17 2.7 2.63 3.55 4.36.28.72.46 1.48.53 2.26-.58.14-1.17.18-1.77.1z"/><path style="fill:#49a199" d="M83.4 83.97a6.93 6.93 0 0 1-3.15-1.28 10.28 10.28 0 0 1-3.56-4.3 8.99 8.99 0 0 1-.73-3.11c-.01-.13.08-.2.2-.2 1.8.09 3.54 1.08 4.93 2.16 1.5 1.17 2.7 2.63 3.55 4.36.28.72.46 1.48.53 2.26a5 5 0 0 1-1.77.1zM84.65 90.26a6.95 6.95 0 0 1-3.3-.82 10.28 10.28 0 0 1-4.12-3.76 8.98 8.98 0 0 1-1.16-2.98c-.03-.13.05-.21.17-.22 1.8-.17 3.65.57 5.18 1.44 1.66.95 3.05 2.23 4.12 3.83.38.67.67 1.4.85 2.16-.56.22-1.14.34-1.74.35z"/><path style="fill:#49a199" d="M85.15 95.85a6.95 6.95 0 0 1-3.29-.82 10.28 10.28 0 0 1-4.13-3.76 9 9 0 0 1-1.16-2.98c-.02-.13.05-.21.18-.22 1.79-.17 3.65.57 5.18 1.44 1.65.95 3.04 2.23 4.12 3.83.38.67.67 1.4.84 2.16-.55.22-1.14.34-1.74.35zM87.13 103.44a7.03 7.03 0 0 1-3.44-.96c-1.74-.95-3.3-2.4-4.36-4.2A10.53 10.53 0 0 1 78.07 95c-.02-.14.05-.23.18-.24 1.86-.15 3.81.69 5.42 1.68 1.74 1.06 3.2 2.5 4.35 4.26.4.75.72 1.56.91 2.39-.57.23-1.17.35-1.8.36z"/><path style="fill:#49a199" d="M92.11 37.47a38.36 38.36 0 0 0-5.88 12.91 69.26 69.26 0 0 0-1.97 14.67c-.18 4.82-.04 9.64.24 14.45.35 6.22 1.24 12.4 2.6 18.48a122.17 122.17 0 0 0 3.62 12.78l.36-.12.28-.1-.53-1.56c-.97-2.94-1.82-5.91-2.56-8.91a114.68 114.68 0 0 1-3-18.34c-.39-4.9-.56-9.85-.48-14.78.08-4.9.47-9.81 1.46-14.62a41 41 0 0 1 5.05-13.34c.3-.49.63-.96.96-1.42.1-.13-.06-.23-.15-.1z"/><path style="fill:#49a199" d="M90.46 101.72a9.79 9.79 0 0 0 3.96-2.39c1.85-1.74 3.26-4 3.93-6.45.38-1.39.5-2.82.36-4.25-.01-.17-.15-.24-.31-.2-2.4.52-4.53 2.22-6.19 3.96a16.88 16.88 0 0 0-3.88 6.53c-.23 1-.33 2.04-.27 3.07a7 7 0 0 0 2.4-.27z"/><path style="fill:#49a199" d="M89.01 94.64a9.8 9.8 0 0 0 4.3-1.73 14.1 14.1 0 0 0 4.9-5.76c.58-1.3.93-2.7 1.02-4.13.01-.17-.1-.26-.27-.25-2.45.13-4.83 1.48-6.74 2.93a16.9 16.9 0 0 0-4.87 5.83c-.38.96-.65 1.97-.74 3a7 7 0 0 0 2.4.11z"/><path style="fill:#49a199" d="M87.7 87.81a8.14 8.14 0 0 0 3.77-1.27 11.9 11.9 0 0 0 4.43-4.76 10.4 10.4 0 0 0 1.05-3.58c.01-.15-.09-.24-.23-.24-2.11-.03-4.21 1.01-5.9 2.18a14.26 14.26 0 0 0-4.42 4.83c-.37.83-.64 1.7-.76 2.6.67.2 1.36.28 2.06.24z"/><path style="fill:#49a199" d="M87.3 82.67a8.12 8.12 0 0 0 3.55-1.76 12.03 12.03 0 0 0 3.79-5.33c.41-1.19.6-2.43.58-3.7 0-.15-.11-.22-.26-.2-2.09.24-4.03 1.55-5.56 2.94a14.43 14.43 0 0 0-3.76 5.4 9.64 9.64 0 0 0-.42 2.67c.69.12 1.39.11 2.08-.02z"/><path style="fill:#49a199" d="M86.74 76.39a8.12 8.12 0 0 0 3.55-1.76 12.03 12.03 0 0 0 3.79-5.33c.41-1.19.6-2.43.58-3.7 0-.15-.11-.22-.26-.2-2.08.25-4.03 1.56-5.56 2.94a14.43 14.43 0 0 0-3.76 5.4 9.64 9.64 0 0 0-.42 2.68c.69.1 1.39.1 2.08-.03z"/><path style="fill:#49a199" d="M86.7 69.88a8.12 8.12 0 0 0 3.56-1.76 12.02 12.02 0 0 0 3.79-5.33c.41-1.18.6-2.42.58-3.7 0-.14-.11-.22-.26-.2-2.08.25-4.03 1.56-5.56 2.94a14.43 14.43 0 0 0-3.76 5.4 9.64 9.64 0 0 0-.42 2.68c.69.11 1.39.1 2.08-.03z"/><path style="fill:#49a199" d="M86.75 64.99a8.12 8.12 0 0 0 3.56-1.76 12.03 12.03 0 0 0 3.78-5.33c.42-1.19.61-2.43.58-3.7 0-.15-.1-.22-.25-.2-2.09.25-4.03 1.55-5.57 2.94a14.43 14.43 0 0 0-3.75 5.4 9.64 9.64 0 0 0-.42 2.67c.68.12 1.38.11 2.07-.02z"/><path style="fill:#49a199" d="M87.08 59.57a8.12 8.12 0 0 0 3.55-1.76 12.03 12.03 0 0 0 3.79-5.33c.4-1.19.6-2.43.58-3.7 0-.15-.11-.22-.26-.2-2.09.25-4.03 1.55-5.56 2.94a14.43 14.43 0 0 0-3.76 5.4 9.64 9.64 0 0 0-.42 2.67c.69.12 1.39.11 2.08-.02zM89.76 43.9A7.17 7.17 0 0 0 91.64 41c.66-1.8.85-3.8.46-5.69a9.05 9.05 0 0 0-1.23-3.01c-.07-.12-.19-.12-.29-.04-1.45 1.13-2.33 2.99-2.86 4.71a12.52 12.52 0 0 0-.4 5.72c.2.77.49 1.5.89 2.19a5.2 5.2 0 0 0 1.55-.96z"/><path style="fill:#49a199" d="M89.32 46.57a6.33 6.33 0 0 0 2.76-1.37 9.34 9.34 0 0 0 2.94-4.13c.32-.92.47-1.89.45-2.87 0-.12-.09-.18-.2-.16-1.62.19-3.13 1.2-4.32 2.28a11.2 11.2 0 0 0-2.92 4.19 7.5 7.5 0 0 0-.32 2.08c.53.08 1.07.08 1.6-.02z"/><path style="fill:#49a199" d="M88.11 53.37a8.12 8.12 0 0 0 3.56-1.76 12.02 12.02 0 0 0 3.79-5.32c.4-1.2.6-2.43.58-3.7 0-.15-.12-.23-.26-.21-2.09.25-4.03 1.56-5.56 2.94a14.43 14.43 0 0 0-3.76 5.4 9.64 9.64 0 0 0-.42 2.68c.68.11 1.38.1 2.07-.03zM23.11 57.45a8.44 8.44 0 0 0-.42-4.1 12.48 12.48 0 0 0-3.82-5.6c-1.01-.83-2.15-1.47-3.4-1.9-.14-.05-.25.03-.29.17-.5 2.13.07 4.5.86 6.48a14.96 14.96 0 0 0 3.9 5.6c.75.57 1.57 1.05 2.45 1.38.36-.62.6-1.3.72-2.03z"/><path style="fill:#49a199" d="M30.4 62.2a8.44 8.44 0 0 0-.42-4.1 12.48 12.48 0 0 0-3.82-5.61c-1-.83-2.15-1.47-3.4-1.9-.14-.05-.25.03-.29.17-.5 2.13.07 4.5.86 6.48a14.96 14.96 0 0 0 3.9 5.6c.75.57 1.57 1.04 2.45 1.38.36-.63.6-1.3.73-2.03zM36.92 66.75a8.43 8.43 0 0 0 .4-4.1 12.48 12.48 0 0 0-2.63-6.25 10.93 10.93 0 0 0-2.95-2.54c-.13-.08-.25-.02-.32.11-.92 1.98-.83 4.42-.45 6.52a14.98 14.98 0 0 0 2.7 6.27 10 10 0 0 0 2.14 1.84 6.1 6.1 0 0 0 1.11-1.85zM42.8 71.72a8.42 8.42 0 0 0 1.12-3.97c.12-2.26-.37-4.6-1.48-6.62A10.93 10.93 0 0 0 40 58.11c-.12-.1-.26-.07-.34.05-1.26 1.79-1.6 4.2-1.6 6.34 0 2.31.52 4.55 1.55 6.65.49.8 1.08 1.55 1.77 2.19.57-.46 1.05-1 1.42-1.62zM49.56 78.66c.68-1.09 1.1-2.28 1.34-3.51.05-.36.08-.7.11-1.05.25-2.58-.2-5.22-1.37-7.47A11.03 11.03 0 0 0 47 63.31c-.13-.1-.28-.06-.39.08-1.51 2.09-2.01 4.85-2.11 7.28-.1 2.63.38 5.16 1.45 7.5.52.88 1.16 1.7 1.92 2.4a7.83 7.83 0 0 0 1.69-1.91zM54.96 84.72a9.3 9.3 0 0 0 1.8-4.17c.47-2.44.29-5.07-.62-7.44a12.05 12.05 0 0 0-2.22-3.66c-.12-.13-.27-.11-.38 0-1.64 1.77-2.37 4.35-2.68 6.69a16.5 16.5 0 0 0 .7 7.48c.4.95.94 1.85 1.6 2.65a6.7 6.7 0 0 0 1.8-1.55z"/><path style="fill:#49a199" d="M60.48 90.8a9.3 9.3 0 0 0 1.8-4.16c.47-2.44.29-5.07-.62-7.44a12.05 12.05 0 0 0-2.22-3.66c-.12-.13-.27-.11-.38 0-1.64 1.77-2.37 4.35-2.69 6.69a16.5 16.5 0 0 0 .7 7.48c.42.95.95 1.85 1.61 2.65.69-.4 1.3-.93 1.8-1.55zM65.19 97.98a9.26 9.26 0 0 0 2.37-3.87c.8-2.36.98-4.99.41-7.46-.32-1.4-.89-2.72-1.69-3.93-.1-.14-.24-.15-.37-.04-1.87 1.51-2.95 3.96-3.6 6.23a16.48 16.48 0 0 0-.34 7.51c.28 1 .68 1.97 1.22 2.85.74-.3 1.41-.74 2-1.29z"/><path style="fill:#49a199" d="M69.94 103.79a9.28 9.28 0 0 0 2.37-3.87c.8-2.36.99-4.99.42-7.46-.33-1.4-.9-2.72-1.7-3.93-.09-.15-.24-.15-.37-.05-1.86 1.52-2.95 3.97-3.59 6.24a16.48 16.48 0 0 0-.34 7.5c.27 1 .68 1.97 1.22 2.86.73-.31 1.4-.74 2-1.3zM75.17 112.88a9.4 9.4 0 0 0 2.38-4.14c.78-2.54.9-5.39.23-8.1a14.09 14.09 0 0 0-1.9-4.31c-.1-.16-.25-.17-.38-.06-1.93 1.6-3 4.23-3.6 6.68a18.38 18.38 0 0 0-.16 8.14c.32 1.1.77 2.16 1.37 3.13a6.53 6.53 0 0 0 2.06-1.34z"/><path style="fill:#49a199" d="M75.57 117.2a165.27 165.27 0 0 0-5.5-9.55 152.58 152.58 0 0 0-14.83-20.08 203.86 203.86 0 0 0-13.32-14A92.59 92.59 0 0 0 26.3 61.42a51.3 51.3 0 0 0-17.72-6.8c-.2-.04-.26.19-.05.23.75.13 1.5.28 2.25.46 6.2 1.5 12.04 4.45 17.32 7.99a105.06 105.06 0 0 1 15.1 12.58c4.7 4.62 9.17 9.5 13.4 14.55a153.55 153.55 0 0 1 18.08 27.01c.3-.05.6-.13.89-.24z"/><path style="fill:#49a199" d="M70.39 114.37a13.1 13.1 0 0 1-4.64 1.38c-.47.03-.93.04-1.39.05-3.39.06-6.86-.76-9.8-2.48a15.8 15.8 0 0 1-4.32-3.7c-.14-.18-.08-.38.1-.5 2.78-1.74 6.41-2.12 9.62-2.01 3.46.11 6.77.97 9.83 2.58 1.16.75 2.23 1.64 3.13 2.68a9.35 9.35 0 0 1-2.53 2z"/><path style="fill:#49a199" d="M65.13 106.25c-1.3 1-2.8 1.66-4.36 2.1l-1.37.27c-3.33.6-6.89.33-10.06-.9a15.8 15.8 0 0 1-4.86-2.98c-.17-.15-.14-.35.03-.5 2.46-2.16 6-3.11 9.17-3.51a22.6 22.6 0 0 1 10.12 1c1.27.55 2.46 1.27 3.52 2.15-.59.9-1.32 1.7-2.2 2.37z"/><path style="fill:#49a199" d="M59.97 98.51c-1.05.93-2.3 1.57-3.62 2.03-.38.1-.77.2-1.15.28-2.84.67-5.9.57-8.7-.38A13.9 13.9 0 0 1 42.15 98c-.16-.13-.15-.3-.01-.44 1.99-2 4.96-2.98 7.67-3.46 2.93-.52 5.87-.37 8.75.47 1.12.44 2.2 1.03 3.15 1.77a7.93 7.93 0 0 1-1.74 2.17z"/><path style="fill:#49a199" d="M55.54 93.22a10.87 10.87 0 0 1-3.86 1.52c-.4.05-.8.1-1.18.13-2.9.28-5.95-.22-8.6-1.53a14.1 14.1 0 0 1-4.03-2.99c-.14-.14-.1-.31.05-.43 2.23-1.72 5.31-2.3 8.07-2.4 2.98-.13 5.89.4 8.64 1.62a12.9 12.9 0 0 1 2.92 2.16 7.88 7.88 0 0 1-2 1.92z"/><path style="fill:#49a199" d="M50.19 86.7a10.87 10.87 0 0 1-3.86 1.53c-.4.05-.8.1-1.18.13-2.9.28-5.95-.22-8.6-1.54a14.1 14.1 0 0 1-4.03-2.98c-.14-.15-.1-.32.05-.44 2.23-1.71 5.31-2.29 8.07-2.4 2.97-.13 5.88.41 8.64 1.63a12.9 12.9 0 0 1 2.91 2.16 7.83 7.83 0 0 1-2 1.91z"/><path style="fill:#49a199" d="M44.12 80.47A10.87 10.87 0 0 1 40.26 82l-1.18.13c-2.9.27-5.95-.22-8.6-1.54a14.1 14.1 0 0 1-4.03-2.98c-.14-.15-.1-.32.05-.44 2.23-1.72 5.31-2.3 8.07-2.4 2.97-.13 5.88.41 8.64 1.62a12.9 12.9 0 0 1 2.91 2.16 7.84 7.84 0 0 1-2 1.92z"/><path style="fill:#49a199" d="M39.49 75.84a10.87 10.87 0 0 1-3.86 1.53l-1.19.13c-2.9.28-5.94-.22-8.6-1.54a14.1 14.1 0 0 1-4.02-2.98c-.14-.15-.1-.32.05-.44 2.23-1.72 5.31-2.29 8.07-2.4 2.97-.13 5.88.41 8.64 1.62a12.9 12.9 0 0 1 2.91 2.16 7.84 7.84 0 0 1-2 1.92z"/><path style="fill:#49a199" d="M34.1 70.97a10.87 10.87 0 0 1-3.86 1.53c-.4.05-.8.1-1.19.13-2.9.28-5.94-.22-8.6-1.54a14.1 14.1 0 0 1-4.02-2.98c-.14-.14-.1-.32.05-.43 2.23-1.72 5.31-2.3 8.07-2.41 2.97-.13 5.88.42 8.64 1.63a12.9 12.9 0 0 1 2.91 2.16 7.88 7.88 0 0 1-2 1.91zM16.86 58.55a9.57 9.57 0 0 1-4.54-1.02 13.98 13.98 0 0 1-5.76-5 12.14 12.14 0 0 1-1.65-4.03c-.04-.17.06-.28.23-.3 2.46-.28 5.03.67 7.15 1.81a16.75 16.75 0 0 1 5.74 5.09c.53.91.95 1.9 1.2 2.92-.75.31-1.55.5-2.37.53z"/><path style="fill:#49a199" d="M19.77 60.67a8.44 8.44 0 0 1-3.91 1.29 12.5 12.5 0 0 1-6.68-1.2 10.94 10.94 0 0 1-3.12-2.3c-.11-.12-.09-.26.03-.35 1.73-1.33 4.13-1.78 6.27-1.86 2.3-.1 4.56.32 6.7 1.26.83.45 1.6 1.01 2.26 1.67a6.06 6.06 0 0 1-1.55 1.5z"/><path style="fill:#49a199" d="M27.3 66.04a10.88 10.88 0 0 1-3.86 1.52c-.4.05-.79.1-1.18.13-2.9.28-5.95-.22-8.6-1.53a14.1 14.1 0 0 1-4.03-2.99c-.14-.14-.1-.31.05-.43 2.23-1.72 5.31-2.3 8.07-2.4 2.98-.13 5.89.4 8.64 1.62a12.9 12.9 0 0 1 2.92 2.16 7.84 7.84 0 0 1-2 1.92z"/><path style="fill:#d8804e" d="M162.21 117.32c-2.2-8.58 4.45-12.55 4.45-12.55l-18.11-.08v-.02a1793.93 1793.93 0 0 0-3.84 0v.01l-18.12.1s6.65 3.96 4.45 12.54c-2.2 8.58-11.58 11.82-9.75 33.18s14.6 29.94 14.6 29.94h.06c0 .35 4.5.64 10.04.64h1.28c5.54 0 10.03-.29 10.03-.64h.06s12.77-8.58 14.6-29.94c1.84-21.36-7.55-24.6-9.75-33.18z"/><path style="fill:#d6dbda" d="M162.21 117.32c-2.2-8.58 4.45-12.55 4.45-12.55l-18.11-.08v-.02a1793.93 1793.93 0 0 0-3.84 0v.01h-.08l18.03.1s-6.65 3.95-4.45 12.54c2.2 8.58 11.58 11.82 9.75 33.18s-14.6 29.94-14.6 29.94h-.06c0 .32-3.78.59-8.67.63h2.64c5.54 0 10.03-.28 10.03-.63h.06s12.77-8.58 14.6-29.94c1.84-21.36-7.55-24.6-9.75-33.18z"/><path style="fill:#838788" d="M166.73 104.67c0 .7-8.99 1.27-20.07 1.27s-20.07-.57-20.07-1.27c0-.7 8.99-1.27 20.07-1.27s20.07.56 20.07 1.27z"/><path style="fill:#3a527e" d="M140.89 62.02v43.85c.58.12 1.16.17 1.75.2l1.03-44.05h-2.78zM143.74 62.02l2.74 43.94c.59.04 1.17.02 1.76 0l-1.72-43.94h-2.78zM148.5 62.02l2.75 43.97c.59-.02 1.17-.05 1.76-.1l-1.72-43.87h-2.78z"/><path style="fill:#8a3526" d="M219.62 294.25c-3.64-1.29-4.5-3.85-4.5-3.85l-3.42-33.66H156.9l-3.43 33.66s-.85 2.56-4.49 3.85c-3.63 1.28-23.72 9.19-23.72 9.19h118.09s-20.09-7.91-23.72-9.2z"/><path style="fill:#8a3526" d="m213.09 270.41-1.39-13.67h-54.81l-1.39 13.67z"/><path style="fill:#787d7e" d="M125.25 303.44h118.09v2.24H125.25z"/><path style="fill:#d8804e" d="M302.92 264.18H65.67a14.64 14.64 0 0 1-14.64-14.64v-135.5c0-8.1 6.55-14.65 14.64-14.65h237.25c8.09 0 14.64 6.55 14.64 14.64v135.51c0 8.09-6.55 14.64-14.64 14.64z"/><path style="fill:#fff" d="M59.83 107.19h248.93v131.24H59.83z"/><path style="opacity:.32;fill:#535858" d="M95.89 155.76c12.87-6.93 25.67-13.99 38.6-20.82a1813.77 1813.77 0 0 1 39.05-19.86l15.9-7.89h-18.8a3637.71 3637.71 0 0 0-64.17 33.62 1888.29 1888.29 0 0 0-46.64 25.98v7.55a944.82 944.82 0 0 0 36.06-18.58zM304.33 214.85c1.48-.78 2.95-1.58 4.43-2.37v-36.86c-1.03.58-2.04 1.19-3.08 1.76-12.17 6.77-102.49 53.11-116.5 60.88l-.3.17h71.36c14.6-8.04 29.37-15.76 44.1-23.58z"/><g style="opacity:.5"><path style="fill:#a5cdef" d="M78.51 149.19h131.03v77.24H78.51zM216.75 135.91h75.33v53.72h-75.33zM216.75 194.58h75.33v5.2h-75.33zM216.75 203.45h75.33v5.2h-75.33zM216.75 212.33h75.33v5.2h-75.33zM216.75 221.2h75.33v5.2h-75.33zM78.51 137.86h131.03v5.03H78.51zM78.51 129.28h131.03v5.03H78.51zM78.51 120.7h213.57v5.06H78.51z"/></g><ellipse style="fill:#4583a7" cx="188.32" cy="319.71" rx="133.33" ry="10.87"/><ellipse style="fill:#2f5e78" cx="188.77" cy="318.61" rx="106.06" ry="7.45"/><path style="fill:#2d4c71" d="M133.63 207.37h4.55v28.42h-4.55z"/><path style="fill:#e3e2d7" d="M134 207.37h3.87v1.54H134z"/><path style="fill:#5282bd" d="M133.63 209.09h4.55v28.42h-4.55z"/><path style="fill:#5282bd" d="M137.66 209.09h.52v28.42h-.52z"/><path style="fill:#864e2c" d="M138.18 207.37h4.55v28.42h-4.55z"/><path style="fill:#e3e2d7" d="M138.55 207.37h3.87v1.54h-3.87z"/><path style="fill:#b46651" d="M138.18 209.09h4.55v28.42h-4.55z"/><path style="fill:#9c4e42" d="M142.21 209.09h.52v28.42h-.52z"/><path style="fill:#18534e" d="M142.73 210.28h4.11v25.68h-4.11z"/><path style="fill:#e3e2d7" d="M143.06 210.28h3.49v1.39h-3.49z"/><path style="fill:#49a199" d="M142.73 211.82h4.11v25.68h-4.11z"/><path style="opacity:.51;fill:#456ea0" d="M146.38 211.82h.47v25.68h-.47z"/><path style="fill:#2d4c71" d="M146.84 209.47h4.23v26.44h-4.23z"/><path style="fill:#e3e2d7" d="M147.19 209.47h3.6v1.43h-3.6z"/><path style="fill:#5282bd" d="M146.84 211.07h4.23v26.44h-4.23z"/><path style="fill:#5282bd" d="M150.6 211.07h.48v26.44h-.48z"/><path style="fill:#864e2c" d="M151.08 209.47h4.23v26.44h-4.23z"/><path style="fill:#e3e2d7" d="M151.42 209.47h3.6v1.43h-3.6z"/><path style="fill:#b46651" d="M151.08 211.07h4.23v26.44h-4.23z"/><path style="fill:#9c4e42" d="M154.83 211.07h.48v26.44h-.48z"/><path style="fill:#18534e" d="M155.31 212.18h3.83v23.89h-3.83z"/><path style="fill:#e3e2d7" d="M155.62 212.18h3.25v1.29h-3.25z"/><path style="fill:#49a199" d="M155.31 213.62h3.83v23.89h-3.83z"/><path style="opacity:.51;fill:#456ea0" d="M158.7 213.62h.43v23.89h-.43z"/><path style="fill:#e2dfca" d="M162.63 236.66c.02.52-2 .99-4.5 1.05-2.49.06-4.52-.3-4.54-.82-.01-.51 2-.98 4.5-1.05 2.5-.06 4.53.3 4.54.82z"/><path style="fill:#edead3" d="M164.02 229.8s.54-1.42 2.82-1.06c2.29.35 2.13 3.96-.05 5.5-1.84 1.3-5.38 1.9-5.38 1.9v-.92s2.65-.08 4.52-1.47c2-1.48 1.67-3.6.5-3.9-1.6-.42-2.57 1.72-2.57 1.72l.16-1.78z"/><path style="fill:#e2dfca" d="M163.35 234.92c-1.08.27-1.94.3-1.94.3v.92s.63-.1 1.5-.33l.44-.9zM164.73 230.36c.12-.49.22-.98.29-1.47-.78.32-1 .9-1 .9l-.16 1.78s.3-.69.87-1.21z"/><path style="fill:#edead3" d="m164.67 228.13-6.68-.1h-.2l-6.68.1s.29 4.62 2.7 8.71v.01c.23.37 1.97.66 4.08.66 2.13 0 3.89-.3 4.09-.67 2.4-4.09 2.69-8.72 2.69-8.72z"/><path style="fill:#bdbdac" d="M164.67 228.13c0 .33-3.04.6-6.78.6-3.75 0-6.78-.27-6.78-.6 0-.34 3.03-.62 6.78-.62 3.75 0 6.78.28 6.78.62z"/><path style="fill:#646669" d="M196.01 234.72h30.49v1.73h-30.49z"/><path style="fill:#313436" d="M197.97 235.73h2.35v.36h-2.35zM201.37 235.73h2.35v.36h-2.35z"/><path style="fill:#646669" d="M187.47 203.58h-1.35l10.05 32.87h1.36z"/><path style="fill:#a4775a" d="M223.34 320.92h3.16l3.17-79.08h-6.33z"/><path style="fill:#a4775a" d="M225.81 320.92h.69l3.17-79.08h-.91zM143.58 320.92h-3.17l-3.16-79.08h6.33z"/><path style="fill:#a4775a" d="M141.11 320.92h-.7l-3.16-79.08h.91z"/><path style="fill:#72533d" d="M134.76 236.64h96.57v8.02h-96.57z"/><path style="fill:#a4775a" d="M131.83 236.29h105.24v3.51H131.83z"/><path style="fill:#49a199" d="m229.9 116.05.06-.05c.72-.55 1.64-1.15 2.05-1.99.17-.34.2-.73-.06-1.04a.86.86 0 0 0-.83-.29c-.43.07-.83.33-1.18.64v-.09c.02-.96.06-1.92.1-2.88a8.99 8.99 0 0 1 2.01-2.05c.67-.5 1.36-.96 2-1.48.58-.47 1.27-1.02 1.53-1.73.21-.56-.12-1.14-.6-1.44-.48-.3-1.04-.2-1.52.02-.63.3-1.16.8-1.64 1.3-.55.57-1.05 1.21-1.53 1.86.1-1.03.2-2.05.32-3.07.42-.78.9-1.52 1.5-2.2.85-.98 1.84-1.82 2.88-2.58.45-.34.9-.68 1.38-.99.4-.25.81-.48 1.2-.76.7-.52 1.27-1.14 1.28-2.06.01-.58-.32-1.01-.9-1.1-.65-.1-1.33.14-1.92.37a11.55 11.55 0 0 0-4.37 3c.2-.95.4-1.9.64-2.85a14.89 14.89 0 0 1 2.34-2.79c1.04-.96 2.2-1.77 3.44-2.47.67-.38 1.36-.73 2.06-1.08.45-.22.93-.35 1.4-.54.86-.33 1.74-.82 1.9-1.8.1-.63-.24-1.11-.83-1.3a4.64 4.64 0 0 0-2.15.01c-.64.12-1.28.28-1.88.52-1.37.56-2.71 1.25-3.91 2.12.43-1.06.9-2.1 1.43-3.13a15.16 15.16 0 0 1 5.68-3.85c.55-.23 1.1-.43 1.68-.53 1.23-.2 2.47-.34 3.7-.6a11 11 0 0 0 1.79-.49c.44-.17.9-.38 1.21-.75.54-.64.36-1.7-.36-2.13-.85-.5-2.03-.3-2.95-.13-1.13.2-2.25.54-3.34.93-1.39.5-2.66 1.22-3.87 2.04 3.13-3.86 7.38-6.92 12.25-8.1 2.76-.68 5.9-.61 8.38.89 1.32.8 2.4 2.02 3.12 3.37.39.71.64 1.48.65 2.3 0 .6-.18 1.17-.32 1.74 2.58-1.53 5.5-2.66 8.52-2.73 3.03-.07 6.24 1.02 8.27 3.33 1.78 2.02 2.54 4.72 2.8 7.34l.06.9c-.07 1.51-.3 3.02-.65 4.49a9.9 9.9 0 0 0-4.96-6.81 14.62 14.62 0 0 0-3.9-1.4c-1.1-.21-2.48-.32-3.4.45-.36.3-.69.8-.64 1.29.05.48.47.8.87 1.02 1.04.53 2.24.63 3.36.92a9.46 9.46 0 0 1 3.62 2.44 10.17 10.17 0 0 1 2.25 4.07c.38 1.35.5 2.75.4 4.14a28.52 28.52 0 0 1-2.29 3.53c.03-1.48-.33-3.01-.8-4.3-.85-2.35-2.32-4.73-4.48-6.09a5.16 5.16 0 0 0-3.26-.84c-.47.05-1.04.17-1.26.64-.2.41.01.89.24 1.25.67 1.05 1.73 1.78 2.55 2.7a12.18 12.18 0 0 1 2.47 4.32c.8 2.46.7 5.1-.3 7.41a28.24 28.24 0 0 1-5.07 3.4 11.7 11.7 0 0 0 .49-7.28c-.26-.88-.55-1.76-.95-2.6-.34-.72-.82-1.57-1.59-1.9-.68-.3-1.55 0-1.85.7-.36.85-.08 1.94.14 2.79.24.99.61 1.95.82 2.94.11.55.06 1.15.02 1.7a9.99 9.99 0 0 1-2.54 5.95c-1.4.47-2.83.85-4.26 1.18a13.5 13.5 0 0 0 1.38-5.4 7.92 7.92 0 0 0-.15-2.04c-.12-.59-.32-1.37-.87-1.7-.58-.37-1.31 0-1.66.52-.46.68-.51 1.64-.57 2.44-.06.89-.03 1.79-.13 2.67-.06.49-.25.96-.44 1.4a11.04 11.04 0 0 1-1.86 2.94c-1.53.23-3.06.39-4.6.54a11.37 11.37 0 0 0 1.81-5.25c.04-.5.07-1.17-.3-1.56-.38-.38-1-.22-1.35.11a3.66 3.66 0 0 0-.84 1.74c-.19.68-.3 1.37-.46 2.05a8.68 8.68 0 0 1-1.86 3.19c-1.2.12-2.4.25-3.59.4.73-1.07 1.37-2.41 1.07-3.73-.04-.14-.21-.25-.35-.2-1.67.6-2.4 2.46-3.44 3.75-.2.27-.43.51-.66.75-3.52.73-7.31 2.01-9.8 4.69l-.02-.29c-.09-1.06.02-2.13.11-3.19.05-.52.07-1.03.08-1.55z"/><path style="fill:#6abbb7" d="m320.73 112.98-.08-.07c-.95-.73-2.14-1.5-2.68-2.6-.22-.46-.27-.97.07-1.37.28-.33.68-.45 1.1-.38.56.1 1.08.44 1.54.84v-.12c-.03-1.26-.08-2.52-.14-3.77a11.76 11.76 0 0 0-2.63-2.7c-.88-.63-1.78-1.25-2.63-1.93-.74-.6-1.65-1.33-2-2.27-.27-.73.17-1.48.8-1.88.62-.4 1.36-.27 2 .03a7.63 7.63 0 0 1 2.13 1.69c.73.76 1.39 1.6 2.01 2.44-.12-1.34-.25-2.68-.42-4.02a15.58 15.58 0 0 0-1.97-2.89 23.55 23.55 0 0 0-3.76-3.37c-.6-.45-1.19-.9-1.81-1.29-.53-.33-1.07-.64-1.57-1-.93-.68-1.67-1.5-1.69-2.7 0-.76.43-1.33 1.19-1.44.84-.12 1.74.18 2.51.48a15 15 0 0 1 5.73 3.93 95.4 95.4 0 0 0-.84-3.73 19.56 19.56 0 0 0-3.07-3.65 23.56 23.56 0 0 0-4.5-3.24c-.89-.5-1.79-.96-2.7-1.41-.6-.3-1.22-.47-1.84-.71-1.12-.44-2.28-1.07-2.48-2.37-.13-.82.3-1.45 1.08-1.7a6.08 6.08 0 0 1 2.82.02c.83.15 1.68.36 2.47.68 1.78.73 3.54 1.64 5.12 2.78-.58-1.4-1.2-2.76-1.88-4.1a19.86 19.86 0 0 0-4.35-3.52 23.9 23.9 0 0 0-3.09-1.53c-.72-.3-1.43-.56-2.2-.7-1.61-.26-3.24-.44-4.84-.77-.8-.16-1.59-.35-2.35-.65a3.89 3.89 0 0 1-1.59-.98 1.9 1.9 0 0 1 .47-2.79c1.11-.65 2.67-.4 3.86-.18 1.5.27 2.96.72 4.38 1.23 1.82.65 3.49 1.59 5.07 2.66-4.1-5.05-9.67-9.05-16.04-10.6-3.61-.89-7.72-.8-10.98 1.16a11.5 11.5 0 0 0-4.1 4.41c-.5.94-.82 1.94-.84 3-.01.8.24 1.55.42 2.3-3.38-2-7.2-3.48-11.16-3.58-3.96-.1-8.17 1.35-10.84 4.37-2.32 2.63-3.32 6.18-3.66 9.6l-.09 1.2c.1 1.97.4 3.94.87 5.86.83-3.74 3.03-7.13 6.5-8.91 1.6-.83 3.33-1.5 5.1-1.83 1.44-.28 3.24-.43 4.45.58.47.4.9 1.05.84 1.69-.07.63-.61 1.06-1.14 1.33-1.37.7-2.94.84-4.4 1.22-.8.2-1.6.68-2.34 1.15-.88.57-1.7 1.26-2.4 2.04a13.32 13.32 0 0 0-2.95 5.34c-.5 1.76-.66 3.6-.53 5.42.88 1.6 1.9 3.15 3 4.61-.04-1.93.44-3.94 1.05-5.62 1.12-3.08 3.04-6.2 5.87-7.98a6.75 6.75 0 0 1 4.28-1.1c.6.07 1.35.23 1.64.84.26.54-.02 1.16-.32 1.63-.87 1.38-2.26 2.34-3.33 3.54a15.95 15.95 0 0 0-3.24 5.66 13.73 13.73 0 0 0 .4 9.71 37.05 37.05 0 0 0 6.63 4.46 12.57 12.57 0 0 1-1.07-4.55c-.1-1.67 0-3.38.44-5a21 21 0 0 1 1.23-3.4c.45-.94 1.07-2.06 2.08-2.5.9-.4 2.04.02 2.43.93.47 1.11.1 2.54-.18 3.65-.32 1.3-.8 2.55-1.07 3.86-.15.72-.09 1.5-.03 2.23a13.08 13.08 0 0 0 3.33 7.8 62 62 0 0 0 5.58 1.53 17.69 17.69 0 0 1-1.81-7.08c-.06-.9.02-1.79.2-2.66.15-.78.41-1.8 1.13-2.25.76-.47 1.73.02 2.18.7.6.89.67 2.15.74 3.2.08 1.16.04 2.33.17 3.5.08.63.33 1.24.58 1.83a14.26 14.26 0 0 0 2.44 3.84c2 .3 4 .51 6.02.7l-.54-.9a14.9 14.9 0 0 1-1.84-5.98c-.05-.64-.08-1.52.41-2.02.5-.5 1.3-.3 1.76.14.62.58.9 1.5 1.1 2.28.25.89.39 1.8.6 2.69.25 1.02.8 1.99 1.39 2.86.31.46.67.9 1.04 1.31 1.58.15 3.15.32 4.71.53-.96-1.4-1.8-3.17-1.4-4.9.05-.18.28-.32.46-.25 2.18.77 3.15 3.22 4.5 4.91.28.35.57.67.87.98 4.6.96 9.58 2.64 12.83 6.14l.04-.37c.1-1.39-.04-2.8-.16-4.18-.05-.67-.07-1.35-.1-2.02z"/><path style="fill:#49a199" d="m247.17 86.75.05-.06c.63-.66 1.44-1.39 1.71-2.28.11-.37.09-.76-.22-1.02a.86.86 0 0 0-.87-.16c-.4.14-.76.46-1.06.82l-.01-.09c-.13-.95-.24-1.9-.35-2.86.44-.87.98-1.67 1.66-2.34.59-.6 1.2-1.16 1.75-1.78.5-.55 1.09-1.2 1.24-1.95.11-.58-.3-1.1-.83-1.32-.51-.22-1.06-.04-1.5.26-.57.39-1.02.96-1.4 1.53-.47.66-.86 1.36-1.23 2.08a81.3 81.3 0 0 1-.17-3.08c.3-.83.66-1.64 1.15-2.42.68-1.09 1.53-2.07 2.43-2.99.4-.4.79-.81 1.21-1.19.36-.3.73-.6 1.06-.94.62-.62 1.09-1.32.95-2.23-.08-.58-.48-.95-1.06-.95-.65.01-1.3.34-1.84.66a11.56 11.56 0 0 0-3.85 3.65c.05-.97.1-1.94.19-2.91.5-1.1 1.12-2.16 1.88-3.12.88-1.12 1.9-2.1 3-2.98.61-.48 1.24-.94 1.87-1.39.41-.3.87-.5 1.3-.75.8-.47 1.6-1.09 1.6-2.09 0-.63-.41-1.05-1.03-1.15-.7-.1-1.46.13-2.12.35-.61.21-1.22.48-1.78.81a18.56 18.56 0 0 0-3.53 2.7c.27-1.11.57-2.22.93-3.31a15.17 15.17 0 0 1 5-4.7c.51-.3 1.02-.6 1.58-.78 1.18-.4 2.39-.72 3.56-1.16.58-.22 1.15-.46 1.69-.77.4-.24.83-.53 1.08-.94.44-.7.1-1.74-.68-2.04-.92-.36-2.06.02-2.94.33-1.09.38-2.14.89-3.15 1.44-1.3.71-2.44 1.62-3.51 2.62 2.49-4.3 6.21-7.99 10.83-9.92 2.62-1.1 5.73-1.52 8.42-.43a8.79 8.79 0 0 1 3.61 2.84c.49.65.86 1.36 1 2.17.1.6 0 1.18-.04 1.78 2.3-1.92 5.01-3.5 7.99-4.04 2.97-.54 6.32.04 8.69 2 2.06 1.71 3.24 4.26 3.9 6.8l.21.9c.17 1.5.18 3.01.05 4.52a9.9 9.9 0 0 0-5.96-5.95 14.6 14.6 0 0 0-4.07-.77c-1.12-.03-2.5.07-3.28.98-.31.35-.56.9-.44 1.37.13.47.59.73 1.02.87 1.12.36 2.31.28 3.46.39a9.44 9.44 0 0 1 3.96 1.84c1.23.97 2.2 2.25 2.86 3.67.59 1.27.93 2.64 1.05 4.02a28.51 28.51 0 0 1-1.71 3.85c-.2-1.47-.8-2.92-1.46-4.12-1.22-2.19-3.04-4.3-5.38-5.31a5.15 5.15 0 0 0-3.36-.32c-.45.12-1 .33-1.14.82-.13.45.15.88.43 1.2.83.93 1.99 1.5 2.94 2.27a12.17 12.17 0 0 1 3.12 3.88c1.17 2.3 1.49 4.93.85 7.37a28.26 28.26 0 0 1-4.47 4.15 11.65 11.65 0 0 0-.66-7.27c-.38-.83-.8-1.65-1.33-2.41-.45-.66-1.06-1.43-1.87-1.64a1.43 1.43 0 0 0-1.72.99c-.22.9.23 1.92.57 2.73.4.94.91 1.83 1.27 2.78.2.52.25 1.12.3 1.68a10 10 0 0 1-1.58 6.28c-1.32.67-2.66 1.27-4.03 1.82.6-1.77.7-3.73.52-5.56a7.93 7.93 0 0 0-.47-1.98c-.2-.57-.53-1.3-1.13-1.56-.62-.26-1.3.22-1.55.78-.35.75-.25 1.7-.18 2.5.08.9.25 1.77.29 2.66.02.5-.1.99-.22 1.45a10.89 10.89 0 0 1-1.38 3.2c-1.47.46-2.96.86-4.45 1.25l.3-.75a11.37 11.37 0 0 0 .66-4.73c-.03-.49-.11-1.16-.54-1.48-.44-.31-1.02-.06-1.32.32-.39.5-.49 1.23-.55 1.85-.08.7-.08 1.4-.13 2.1a8.56 8.56 0 0 1-1.33 3.44c-1.18.3-2.34.61-3.5.96.56-1.18.98-2.6.47-3.86-.05-.13-.24-.21-.37-.14-1.56.85-2 2.8-2.81 4.25-.17.29-.35.57-.54.84-3.36 1.27-6.9 3.13-8.93 6.16l-.08-.28c-.25-1.03-.31-2.11-.39-3.17-.03-.51-.1-1.03-.16-1.54zM109.3 98.1c5.01-.76 10.1-.58 15.14-1.21 6.19-.78 12.5-2.43 17.69-6.02 4.9-3.39 8.96-8.19 11.05-13.8a24.2 24.2 0 0 0 1.43-6.3c0-.31-.02-.62-.03-.92-.16-2.68-.82-5.47-2.54-7.59-1.98-2.44-5.2-3.69-8.28-3.74-3.08-.05-6.1.97-8.8 2.43.17-.59.39-1.16.4-1.77.02-.83-.2-1.62-.56-2.37a8.96 8.96 0 0 0-3.04-3.56c-2.47-1.63-5.66-1.83-8.5-1.26-5.41 1.1-10.2 4.43-13.61 8.69-3.46 4.3-5.7 9.48-7.26 14.74a81.45 81.45 0 0 0-1.93 8.02c-.7 3.69-1.1 7.4-1.33 11.14-.1 1.48-.11 2.97-.3 4.44-.14 1.07-.3 2.16-.25 3.25 0 .09 0 .19.02.29 2.77-2.75 6.95-3.88 10.7-4.45z"/><path style="fill:#49a199" d="M128.53 57.3a42.64 42.64 0 0 0 16.93 12.22 31.4 31.4 0 0 0 9.04 2.09c.04-.28.08-.56.1-.84 0-.3 0-.62-.02-.92-.16-2.68-.82-5.47-2.54-7.59-1.98-2.44-5.2-3.69-8.29-3.74-3.08-.05-6.1.97-8.79 2.43.16-.58.39-1.16.4-1.77.02-.83-.2-1.62-.56-2.36a8.96 8.96 0 0 0-3.04-3.56c-2.05-1.36-4.6-1.72-7.03-1.48a34.82 34.82 0 0 0 3.8 5.51zM148.2 74.61c-2.4.06-4.87.77-6.67 2.42a8.23 8.23 0 0 0-2.53 6.4 16.88 16.88 0 0 0 2.43 7.9l.7-.46c4.9-3.39 8.96-8.19 11.05-13.8l.4-1.17a9.87 9.87 0 0 0-5.38-1.29z"/><path style="fill:#6abbb7" d="M171.9 71.4c-5.01-.77-10.11-.59-15.14-1.22-6.19-.78-12.5-2.43-17.69-6.02-4.9-3.39-8.96-8.19-11.05-13.8a24.16 24.16 0 0 1-1.43-6.3l.03-.93c.15-2.67.82-5.46 2.54-7.58 1.98-2.44 5.2-3.69 8.28-3.74 3.08-.05 6.1.97 8.8 2.43-.17-.59-.39-1.16-.4-1.77-.02-.83.2-1.62.56-2.37a8.96 8.96 0 0 1 3.04-3.56c2.47-1.63 5.66-1.83 8.5-1.26 5.41 1.09 10.2 4.43 13.61 8.69 3.46 4.3 5.7 9.48 7.26 14.74a81.16 81.16 0 0 1 1.92 8.02c.7 3.68 1.1 7.4 1.34 11.14.1 1.48.11 2.97.3 4.44.14 1.07.3 2.16.25 3.24l-.02.3c-2.77-2.76-6.95-3.88-10.7-4.46z"/><path style="fill:#6abbb7" d="M175.36 106.14c-3.82-.59-7.7-.45-11.52-.93-4.7-.6-9.51-1.84-13.46-4.58a22.63 22.63 0 0 1-8.4-10.5 18.42 18.42 0 0 1-1.1-4.8l.03-.7c.12-2.03.62-4.15 1.93-5.76a8.34 8.34 0 0 1 6.3-2.85c2.35-.04 4.64.74 6.7 1.85-.13-.45-.3-.88-.31-1.35a3.9 3.9 0 0 1 .43-1.8 6.82 6.82 0 0 1 2.3-2.7c1.89-1.25 4.32-1.4 6.48-.97 4.11.83 7.75 3.37 10.35 6.61 2.63 3.28 4.33 7.21 5.53 11.21.6 2.01 1.07 4.05 1.46 6.1.53 2.81.83 5.64 1.01 8.48.07 1.13.09 2.26.23 3.38.1.82.23 1.65.2 2.47l-.02.22c-2.1-2.09-5.28-2.95-8.14-3.38z"/><path style="fill:#ae5946" d="M280.47 213.4c.12-.11 6.43-2.05 6.24-2.06-2.16-.13-.31-16.14-.02-17.8.53-2.97-9.96-4.73-11.58-7-1-1.39-1.8-2.91-2.3-4.55-.54-1.78-.6-3.63-.95-5.45a12.71 12.71 0 0 0-2.1-5.2l-.17-.21-.06.02c-2.71 1.08-5.25 2.61-7.05 4.96a14.58 14.58 0 0 0-2.94 7.27c.11.3.2.6.3.91a10.37 10.37 0 0 1-.37 6.97c-.44 1.1-.97 2.15-1.44 3.22-.46 1.04-.9 2.12-1.1 3.24a5.63 5.63 0 0 0 .33 3.23 7.38 7.38 0 0 0 1.9 2.4 8.54 8.54 0 0 1 2.23 2.64 4.76 4.76 0 0 1 .16 3.47c-.54 1.15-1.24 2.25-1.72 3.44-.57 1.44-.87 3.08-.28 4.56.28.71.73 1.33 1.33 1.81.58.48 1.27.8 1.95 1.1.13.05.36-.12.3-.26-.22-.55-.63-.94-1-1.39a2.65 2.65 0 0 1-.57-1.01c.06.08.12.16.2.24.25.35.56.68.87.96.23.22.47.41.7.62a3.97 3.97 0 0 1 .58 1.09c.01.14.01.29-.01.43l-.02.12a.89.89 0 0 1-.52.64c-.08.04-.18.17-.08.25 1.09.85 2.5.4 3.7.1.47-.12.94-.28 1.38-.5a6.68 6.68 0 0 0 1.6-.83 3.88 3.88 0 0 1-1.05.93c-.07.05-.12.18 0 .22.72.25 1.46.26 2.22.15.73-.1 1.5-.3 2.16-.64.49-.24.94-.58 1.33-.95-.08.17-.19.34-.33.48-.07.08-.06.21.06.22 1.42.06 2.65-.77 3.49-1.86.45-.59.83-1.26 1-1.98.15-.7.05-1.36-.13-2.04a4.22 4.22 0 0 0-.57-1.36l-.02-.05.2.03c.75.08 1.58-.03 2.15-.58zM262.1 208a5.07 5.07 0 0 0-.21-1.68c-.33-1-1-1.83-1.74-2.54-.77-.74-1.61-1.4-2.2-2.3a5.12 5.12 0 0 1-.77-3.25c.1-1.18.54-2.31 1-3.39.47-1.1 1.01-2.18 1.47-3.29.46-1.09.8-2.2.9-3.38.1-1.17 0-2.36-.27-3.5 1.03 2.52 1.33 5.24.27 7.86-.51 1.28-1.33 2.4-1.79 3.72a5.54 5.54 0 0 0-.23 3.23c.64 2.4 3.25 3.42 3.72 5.99.17.9.08 1.73-.15 2.53z"/><path style="fill:#808285" d="m239.91 268.43.75 46h1.43l.62-46zM267.75 268.43l.75 46h1.44l.62-46zM273.7 263.91l.63 50.41h1.22l.53-50.41zM297.34 263.91l.64 50.41h1.22l.52-50.41z"/><path style="fill:#415654" d="M238.04 273.8s-4.59-7.55 4.7-10.03c9.3-2.47 19.76 3.34 26.77-7.05 7-10.38 7.17-50.18 12.82-54.69 5.65-4.5 28.92-5.22 29.32 0 .4 5.23-2.25 61.19-14.28 69.84-12.04 8.66-59.33 1.93-59.33 1.93z"/><path style="opacity:.43;fill:#415654" d="M311.65 202.03c-.4-5.22-23.67-4.5-29.32 0-5.65 4.51-5.82 44.3-12.82 54.7-2.63 3.88-5.73 5.5-9.08 6.13 1.2.06 2.44-.11 3.6-.31 2.3-.4 4.58-.86 6.87-1.2 3.32-.5 6.64-.68 9.98-.6 2.77.05 5.54.22 8.29.64 1.38.22 2.76.5 4.1.93 1.05.34 2.14.77 3.04 1.55a3.03 3.03 0 0 1 1.14 2.32c-.01 1.23-.77 2.16-1.5 2.8a12.08 12.08 0 0 1-3.77 2.04c-1.57.6-3.2 1.01-4.81 1.37-2.7.59-5.43 1-8.15 1.37-5.66.79-11.37.82-17.06.66-2.78-.08-5.56-.23-8.34-.3a98.91 98.91 0 0 1-7.86-.41c-2.96-.3-5.9-.88-8.74-1.86.34 1.15.81 1.94.81 1.94s47.3 6.73 59.34-1.93c12.03-8.65 14.68-64.6 14.28-69.84z"/><path style="fill:#efcaac" d="M237.59 264.88c-.15 15.15 1.72 41.5 2.36 45.34l3.3.16s3.91-25.49 5.15-43.83l-10.81-1.67z"/><path style="fill:#efcaac" d="M244 310.96c-.4-.63-.77-1.13-.73-1.91.01-.4-.13-.63-.54-.47-.28.11-.55.28-.82.43-.34.19-1.51-.31-1.82.08-.46.56-1.15 2.47-1.53 3.1-.42.68-.9 1.33-1.4 1.95-.85 1.03-2 2.33-3.05 3.14-.42.33-.65.56-.95 1-.3.43-.5.69-.4 1.2.34 1.83 3.26 1.03 4.39.65a9.6 9.6 0 0 0 3.8-2.5c.52-.53 1-1.13 1.42-1.75.4-.59.68-1.38 1.3-1.77.22-.15.49-.25.66-.45.57-.68.15-1.88-.23-2.54a3.5 3.5 0 0 0-.1-.16z"/><path style="fill:#b16153" d="m229.59 320.62-1 .71c-.62.43-1.17 1.1-.95 1.9.23.9 1.68.8 2.4.8.98.02 1.98-.12 2.93-.39 1.2-.34 3.21-.97 4.22-1.7 1.03-.76 1.34-1.52 2.42-2.2.94-.58 1.52-1.23 2.5-1.73.8-.4 1.72-.81 2.2-1.6.26-.44.58-.83.63-1.34a5.3 5.3 0 0 0-.08-1.32c-.03-.18-.46-2.38-.63-2.34-.37.27-.72.57-1.05.89-.58.56-1.05 1.2-1.59 1.81a14.83 14.83 0 0 1-3.66 2.91c-.9.52-1.85 1.07-2.87 1.3-.41.1-.9.14-1.28-.1-.31-.2.31-.59.33-.94-.68.57-1.45 1.05-2.16 1.56-.8.58-1.57 1.19-2.36 1.78z"/><path style="fill:#f6dfc9" d="M251.04 267.54c-2.41 14.96-6 41.22-5.94 45.1l3.84-.71s8.58-23.17 12.53-41.13l-10.43-3.26z"/><path style="fill:#f6dfc9" d="M249.64 313.27c-.33-.67-.65-1.2-.53-1.98.06-.4-.06-.64-.48-.52-.3.08-.58.2-.87.33-.35.16-1.46-.47-1.81-.12-.52.51-1.42 2.34-1.86 2.91a21.35 21.35 0 0 1-4.98 4.58c-.45.28-1 .66-1.34 1.06-.35.4-.28.46-.24 1 .14 1.84 3.13 1.36 4.29 1.1a9.61 9.61 0 0 0 4.05-2.05c.58-.49 1.11-1.02 1.6-1.6.46-.54.83-1.3 1.48-1.62.24-.12.52-.19.72-.37.63-.6.35-1.85.04-2.55a4.7 4.7 0 0 0-.07-.17z"/><path style="fill:#d57565" d="m234.25 321.3-1.06.6c-.67.36-1.29.96-1.16 1.8.13.9 1.59.96 2.29 1.05.98.11 1.99.09 2.96-.08 1.24-.2 3.3-.6 4.39-1.23 1.1-.64 1.5-1.36 2.64-1.92 1-.48 1.65-1.06 2.68-1.45.84-.31 1.8-.62 2.35-1.35.31-.4.67-.76.78-1.27.09-.43.08-.88.06-1.32 0-.18-.2-2.4-.37-2.4-.4.24-.77.5-1.14.78-.63.5-1.17 1.09-1.77 1.63a14.86 14.86 0 0 1-3.96 2.5c-.95.41-1.96.85-3 .97-.42.05-.9.04-1.25-.24-.3-.24.36-.55.42-.9-.73.5-1.55.89-2.32 1.32-.86.49-1.69 1.01-2.54 1.5z"/><path style="fill:#f6dfc9" d="M272.31 204.88s-4.42.23-6.91 5.04c-2.5 4.81-10.17 32.68-10.17 32.68l9.84 1.3 7.24-39.02z"/><path style="fill:#1571a0" d="m289.9 242.67-22.86.42-.32 4.45s-24.93 13.2-28.71 15.3c-1.5.82-4.4 6.75-7.38 13.82 1.18.15 2.35.45 3.49.89 2.24.87 4.32 2.1 6.42 3.27a27.2 27.2 0 0 0 6.84 2.88c2.23.53 9.63-.5 11.9-.7 1.34-7.8 3.38-10.95 3.38-10.95s23.77-3.76 27.97-10.48c4.2-6.72-.74-18.9-.74-18.9z"/><path style="fill:#1571a0" d="M269.85 250.55a30.13 30.13 0 0 0 12.89.45c2.4-.42 4.8-1.06 7.04-2.01.6-.25 1.19-.53 1.76-.83-.7-3.17-1.65-5.5-1.65-5.5l-22.85.43-.32 4.45-1.65.88a13.86 13.86 0 0 0 4.78 2.13z"/><path style="fill:#f59066" d="M269.6 248.73c1.95.56 4 .77 6.03.86 2.13.1 4.28.08 6.4-.1 3.21-.28 6.48-.99 9.32-2.51-.54-4.77-1.54-6.73-1.76-11.05-.34-6.68.86-27.46-.22-30.2v-.02c-.75-.55-1.5-1.08-2.31-1.55a9.9 9.9 0 0 0-3.7-1.34c-1.64-.2-3.31-.1-4.94.08a41.2 41.2 0 0 0-3.4.53c-.58.11-1.19.2-1.74.4-.56.2-1.06.53-1.49.93-.87.8-1.5 1.85-2.09 2.87-.7 1.22-1.47 2.38-2.23 3.56a84.42 84.42 0 0 0-3.14 5.12c-.5 1.52-.91 3.06-1.2 4.5-.4 1.96 2.73 18.4 3.6 26.73.89.51 1.86.9 2.86 1.19z"/><path style="fill:#efcaac" d="M273.75 205.2c-.73 1.31-2.53 3.09-.52 4.32 1.37.84 3.54.18 4.96-.29 1.74-.57 3.37-1.5 4.73-2.73.39-.35.76-.73.96-1.21.48-1.16-.7-1.91-.75-3.02-.16-3.28-.44-6.73-.08-10.04.04-.35.07-.75.22-1.08a.59.59 0 0 0-.26-.25c-.4-.2-.95-.14-1.38-.06-.5.1-.99.28-1.48.41-1.19.32-2.36.74-3.46 1.3-1.07.53-1.98 1.27-2.92 2-.32.24-.67.44-.94.73-.1.1-.23.24-.24.4 0 .21.22.35.33.5.7 1.04.94 2.6 1.12 3.86.19 1.4.33 2.83.06 4.23-.07.35-.2.65-.35.93z"/><path style="fill:#f6dfc9" d="M284.05 173.47a14.16 14.16 0 0 0-8.01-5.76c-3.09-.8-6.5-.4-9.26 1.22a11.23 11.23 0 0 0-5.03 6.97c-.08.33-.16.67-.22 1.01a7.9 7.9 0 0 0-.3 1.1c-.34 1.88.21 3.77.74 5.57.28.98.55 1.98.64 3 .1 1.04.03 2.07-.04 3.1-.12 1.9-.18 3.73.67 5.47 1.33 2.72 3.81 5.07 6.76 5.87 3 .81 6.2-.08 8.87-1.47a16.67 16.67 0 0 0 6.92-6.57c1.67-3.01 1.89-6.4 1.52-9.76-.37-3.42-1.3-6.88-3.26-9.75z"/><path style="fill:#492717" d="M265.84 185.84a3.62 3.62 0 0 0-.46-.75 3.29 3.29 0 0 0-1.59-.77h-.11c-.62.1-.9.65-1.08 1.23l.1-.14c.13-.15.2-.22.36-.25.2-.05.4-.02.6.03.94.26 1.8.92 2.39 1.68.04.05.1.04.15.01-.1-.35-.2-.7-.36-1.04zM277.58 184.47a4 4 0 0 0-4.13-.87 4.34 4.34 0 0 0-2.58 2.74.25.25 0 0 0 .1-.08c.63-1.06 2-1.86 3.2-2.03a4.6 4.6 0 0 1 2.23.34c.38.14.76.28 1.11.48.35.2.67.46 1 .69-.22-.48-.54-.9-.93-1.27z"/><path style="fill:#f6dfc9" d="M289.39 184c-.24-.73-.88-1.51-1.74-1.44-1.06.08-1.65 1.27-1.9 2.17-.07.22-.16.51-.21.82-.15.36-.28.74-.36 1.13-.17.86-.15 1.78-.13 2.66.02.67.03 1.67.79 1.95.7.25 1.38-.23 1.86-.69a6.6 6.6 0 0 0 1.8-4.02c.12-.84.16-1.75-.11-2.57z"/><path style="fill:#f6dfc9" d="M288.82 184.77c-.23-.35-.6-.37-.93-.17-.46.27-.73.76-.93 1.23-.2.5-.34 1.04-.43 1.57-.15.8-.15 1.66.03 2.44.03.15.23.01.22-.1-.04-.49-.08-.97-.07-1.45a.8.8 0 0 0 .17-.04l.25-.14c.17-.12.32-.26.46-.42.26-.29.45-.63.68-.95.05-.07-.05-.12-.1-.06-.21.29-.43.58-.67.84-.12.13-.25.25-.4.35-.07.05-.15.09-.22.12l-.16.05a6.66 6.66 0 0 1 .6-2.37c.16-.35.6-1.1 1.1-.89.4.16.5.76.49 1.12 0 .06.07.03.08-.01.06-.37.03-.8-.17-1.12zM267.93 193.03c-.2-.14-.45-.2-.67-.32-.24-.14-.45-.33-.69-.47.05-.1.2-.22.24-.29a3.11 3.11 0 0 0 .55-1.06c.15-.51.18-1.07-.03-1.57-.04-.08-.18 0-.15.07.16.48.13 1.01-.01 1.5-.08.25-.18.5-.31.72-.07.13-.27.55-.43.56-.1 0-.26.1-.22.23.17.52.79.75 1.23.95.16.08.32.15.45.27.16.16.26.37.4.54.08.1.27-.03.25-.15-.07-.38-.3-.76-.62-.98z"/><path style="fill:#492717" d="M275.63 187.49c0 .8-.34 1.44-.76 1.44s-.76-.64-.76-1.44c0-.8.34-1.44.76-1.44s.76.64.76 1.44z"/><path style="fill:#fff" d="M275.4 186.92c0 .16-.06.29-.14.29-.09 0-.15-.13-.15-.29 0-.15.06-.28.15-.28.08 0 .14.13.14.28z"/><path style="fill:#492717" d="M265.92 188.34c0 .8-.34 1.44-.76 1.44s-.76-.65-.76-1.44c0-.8.34-1.45.76-1.45s.76.65.76 1.45z"/><ellipse style="fill:#fff" cx="265.54" cy="187.77" rx=".15" ry=".28"/><path style="fill:#fff" d="M268.15 197.96c.64.33 1.5.5 2.43.38a4.23 4.23 0 0 0 2.2-.9c.73-.64.98-1.43.9-2.14-1.1.28-2.19.55-3.3.8l-2.8.62-.69.15c.3.42.7.8 1.26 1.1z"/><path style="fill:#e3e2d7" d="m258.52 224.78-20.53 8.57 10.26 23.68 20.25-8.46-7.55-23.45c-.7.1-2.28.24-2.43-.34z"/><path transform="rotate(-22.68 256.33 240.64)" style="fill:#5282bd" d="M245.38 227.75h21.94v25.8h-21.94z"/><path style="fill:#456ea0" d="M238.8 233.01s-.8.19-.54.7c.33.67 2.99-.73 2.99-.73l9.95 23.8-2.3.97s-.98.27-1.24-.35l-9.64-23.07-.2-.48s-.21-.5.31-.79l19.88-8.3h.54l-19.74 8.25z"/><path style="opacity:.51;fill:#456ea0" d="m250.71 257 .49-.21-9.95-23.81-.48.23 9.94 23.78z"/><path style="fill:#2d4c71" d="m241.25 232.98-1.91.8c-.33.1-.62.14-.83.1-.12-.03-.2-.08-.25-.17-.23-.43.55-.7.55-.7l19.74-8.25H258l-19.88 8.3c-.52.28-.3.79-.3.79l.15.38v.02h.01c.05.05.31.25 1.23 0 .19-.05 1-.37 2.2-.86 5.68-2.32 20.23-8.51 20.23-8.51l-.15-.36-20.25 8.46z"/><path style="fill:#f6dfc9" d="M275.3 241.67a3.87 3.87 0 0 0-2.1-2.17c-.63-.27-1.29-.48-1.93-.72a92.9 92.9 0 0 0-1.97-.71c-.57-.2-1.16-.43-1.75-.56a1.61 1.61 0 0 0-.69-.02 26.84 26.84 0 0 0-3.8.2c-.6.07-1.19.17-1.76.35-.57.19-1.05.48-1.52.85-.37.3-.8.52-1.14.87-.13.12-.26.3-.26.48s.14.3.28.36c.17.07.36.1.55.11.94-.08 1.8-.56 2.67-.9.28-.1.59-.16.88-.22a8.88 8.88 0 0 1 2.26-.1c-.1.01-.19.04-.28.07-.45.14-.86.37-1.29.56-.42.19-.83.36-1.2.64-.29.14-.55.3-.8.5-.46.36-.86.79-1.23 1.24l-.43.5c-.26.21-.5.43-.74.66-.24.24-.5.53-.58.87-.1.39.24.56.58.58.56.04.98-.32 1.34-.71a10.47 10.47 0 0 1 1.92-1.6c.76-.64 3.12-.82 2.83-.72l-.16.06a6.59 6.59 0 0 0-1.86.67l-.1.13c-.51.67-1.1 1.27-1.65 1.9l-.86.95c-.2.2-1.3 1.34-.56 1.48.22.04.45-.02.66-.08.27-.1.53-.24.77-.42.51-.38.94-.88 1.35-1.37.22-.26.43-.54.69-.78.32-.3.74-.48 1.16-.6a8.6 8.6 0 0 1 2.03-.31l-.7.23c-1.03.35-1.63 1.05-2.34 1.81-.34.37-.77.63-1.1 1-.2.23-.38.58-.15.85.18.2.48.14.7.05.72-.27 1.25-.84 1.85-1.3.69-.54 1.5-.85 2.3-1.2.9-.4 1.63-.16 2.55 0a17.85 17.85 0 0 0 4.16.28c.35-.03.71-.1 1.01-.3.23-.15.4-.36.52-.6.51-.84.27-2.01-.11-2.86zM301.45 233.83a20.66 20.66 0 0 0-.95-3.59c-1.01-2.98-1.86-6-2.9-8.97-1.57-4.49-3.01-9.96-6.17-13.75a8.9 8.9 0 0 0-3.08-2.45 5.32 5.32 0 0 0-.43-.13 2 2 0 0 0-1.59.24 4.34 4.34 0 0 0-1.46 1.61c-.38.72-.6 1.52-.71 2.32a13.2 13.2 0 0 0 .13 4.59c.27 1.32.7 2.6 1.2 3.86 1.32 2.19 2.7 4.35 3.68 6.7.67 1.61 1.38 3.2 2.03 4.83.6 1.51 1.16 3.05 1.63 4.6.39 1.3.78 2.65 1.59 3.77.4.55.91 1.02 1.54 1.29.66.28 1.39.32 2.08.21 1.21-.19 2.44-.8 3.03-1.88.54-.97.54-2.16.38-3.25z"/><path style="fill:#f6dfc9" d="M274.36 244.3s19.77-1.6 24.1-4.35c4.32-2.76 3.6-7.41 1.18-8.73-2.42-1.33-5.91-.92-9.07 1.13s-17.37 8.12-17.37 8.12l1.16 3.83z"/><path style="fill:#954c3a" d="M300.36 215.18c.12-.11.1-.32-.09-.33-2.16-.13-3.91-2.04-4.8-3.93-1.37-3.31-.53-7 .76-10.2.62-1.58 1.37-3.12 1.67-4.79.53-2.96-1.27-5.34-2.9-7.61-.99-1.39-1.79-2.91-2.29-4.54-.54-1.78-.6-3.64-.96-5.45a12.71 12.71 0 0 0-2.1-5.2 8.26 8.26 0 0 0-3.6-2.83 7.7 7.7 0 0 0-1.6-.43c-1.58-2.24-4.9-2.9-7.43-3.3-4.4-.67-9.62-.39-13.2 2.54a8.49 8.49 0 0 0-2.48 3.2l-.1.06a7.9 7.9 0 0 0-2.28 1.78 7.66 7.66 0 0 0-2.12 5.34 7.22 7.22 0 0 0 .94 3.3l.22-.06c-.15-.4-.31-.77-.43-1.17a8.02 8.02 0 0 1-.3-1.64c-.08-1 .03-2 .39-2.95l.06-.17c-.07.25-.12.5-.15.76a12.06 12.06 0 0 0 .22 3.28 6.02 6.02 0 0 0 .62 1.75c1.4-.43 2.84-.69 4.32-.76 1.92-.09 3.84.12 5.73.42 1 .16 2 .35 2.98.54.98.19 1.94.43 2.94.43a13.17 13.17 0 0 0 3.13.01h.52c.05 0 .1-.04.15-.09l.11-.01c.18.16.35.37.5.6a11.42 11.42 0 0 1 1.36 5.83 10.37 10.37 0 0 1-.79 3.49c-.44 1.1-.96 2.14-1.44 3.22-.46 1.04-.9 2.12-1.1 3.24a5.64 5.64 0 0 0 .34 3.22 7.37 7.37 0 0 0 1.9 2.4 8.54 8.54 0 0 1 2.23 2.65 4.74 4.74 0 0 1 .15 3.46c-.54 1.15-1.24 2.26-1.71 3.44-.58 1.45-.88 3.08-.28 4.57.28.7.73 1.33 1.32 1.81.59.47 1.27.8 1.96 1.1.12.04.36-.13.3-.27-.22-.54-.63-.94-1.01-1.38a2.65 2.65 0 0 1-.57-1.01l.2.23c.26.36.57.69.87.97l.7.61a3.94 3.94 0 0 1 .59 1.1c0 .14 0 .29-.02.43l-.02.12a.89.89 0 0 1-.51.64c-.09.04-.18.17-.09.25 1.09.85 2.5.4 3.7.1.48-.12.94-.29 1.38-.5a6.68 6.68 0 0 0 1.6-.84 4.44 4.44 0 0 1-1.05.93c-.07.06-.11.19 0 .22a4.7 4.7 0 0 0 2.22.16c.73-.1 1.5-.31 2.16-.64.49-.24.94-.58 1.33-.96-.08.18-.18.35-.32.49-.08.07-.07.2.05.21 1.42.07 2.65-.77 3.49-1.86.45-.58.83-1.25 1-1.98.16-.7.05-1.35-.13-2.03a4.2 4.2 0 0 0-.57-1.36l-.02-.05.2.02c.75.08 1.59-.03 2.15-.58zm-18.35-5.4a5.07 5.07 0 0 0-.22-1.68c-.33-1-.99-1.83-1.73-2.54-.77-.74-1.62-1.4-2.21-2.3a5.12 5.12 0 0 1-.77-3.25c.1-1.18.54-2.31 1-3.39.48-1.1 1.02-2.18 1.48-3.29.45-1.09.8-2.2.9-3.38.1-1.17 0-2.36-.28-3.5 1.04 2.52 1.33 5.24.28 7.86-.52 1.28-1.34 2.4-1.8 3.72a5.54 5.54 0 0 0-.23 3.23c.64 2.39 3.26 3.42 3.73 5.99.16.9.07 1.73-.15 2.53z"/><path style="fill:#f6dfc9" d="m63.52 177.58-3.93 5.12 6.56 7.3 6.46-5.59z"/><path style="fill:#7e4a28" d="M80.6 319.33c.77.45 5.5 2.66 7.24 3.46 1.55.72 3.2 1.26 4.88 1.59 1.67.32 3.4.43 5.1.24l.1-.13a2.14 2.14 0 0 0 .98-2.82 3.82 3.82 0 0 0-1.03-1.16c-.49-.4-1-.78-1.53-1.13-1.17-.8-2.39-1.5-3.57-2.27-1.07-.7-2.2-1.35-3.19-2.15a7.98 7.98 0 0 1-1.31-1.31 1.5 1.5 0 0 1-.36-.76c-.02-.27.11-.53.08-.8-.08-.9-1.62-.75-2.22-.7-.47.02-1.01 0-1.44.2-.2.1-.35.23-.47.42-.13.2-.18.5-.48.38-.46-.2-.77-.7-1.15-1.02-.33-.27-.72-.5-1.14-.58a1.34 1.34 0 0 0-1.07.17L80 311c-.7 2.23-1.26 4.7-.9 7a9.53 9.53 0 0 0 1.51 1.34zM105.17 319.69c.83.33 1.7.54 2.52.87 1.78.69 3.45 1.6 5.29 2.15 1.64.48 3.34.78 5.06.86 1.7.07 3.43-.07 5.08-.5l.08-.14.3-.26c.67-.71.83-1.85.26-2.67-.3-.43-.74-.74-1.18-1-.55-.34-1.11-.63-1.68-.9-1.27-.62-2.59-1.14-3.86-1.74-1.16-.53-2.37-1-3.47-1.66a7.94 7.94 0 0 1-1.49-1.1c-.2-.2-.4-.43-.47-.7-.06-.27.04-.54-.03-.81-.21-.87-1.71-.5-2.3-.37-.46.1-1 .16-1.4.41-.18.12-.31.28-.4.48-.1.22-.1.52-.41.45-.5-.13-.87-.6-1.3-.84a2.78 2.78 0 0 0-1.2-.41c-.37-.03-.77.06-1.04.32l-.02.04c-.38 2.31-.57 4.82.12 7.05.32.28 1.14.3 1.54.47z"/><path style="fill:#f6dfc9" d="m115.6 160.92 1.04-.1s2.8 1.24 6.8 6.5c4.02 5.27 8.82 17.57 9.24 19.17 0 0-.58 7.66-2.35 9.4a1436.44 1436.44 0 0 0-13.87 14.7l-2.46-5.66 9.18-17.5-10.12-15.47 2.54-11.04z"/><path style="fill:#f6dfc9" d="M109.63 207.23c-1.36 0-2.74-.05-4.1-.12a60.28 60.28 0 0 1-16.15-2.84c-.84-.28-1.66-.6-2.49-.87a19.05 19.05 0 0 1-.95-1.99c-.14-.73-.26-1.45-.36-2.17.7-1.42-4.02-26.95-3.13-30.44.7-2.7-.51-8.52.15-11.24.89-1.5 7.01-2.24 10.32-3.22 1.84-.55 2.86-13.09 4.01-13 1.6.12 5 3.21 6.5 3.7.65.2 2.03 3.09 2.6 3.48.08.61-.46 6.38-.06 6.93.4.54.9 1 1.43 1.42.63.5 8.6 3.3 9.24 3.95.2.3.68 17.4 0 22.5-1.32 9.7-1.78 14.57-4.64 21.57-.23 0-2.14 2.34-2.37 2.34z"/><path style="fill:#efcaac" d="M110.44 163.12a7.15 7.15 0 0 1-3.22 3.3c-2.7 1.42-6 1.53-8.96 1.17a15.33 15.33 0 0 1-8.1-3.6 17.5 17.5 0 0 1-4.91-7.2c-.07-.18-.12-.37-.18-.55 2.32-.72 5.69-1.26 7.85-1.9 1.84-.55 2.86-13.09 4.01-13 1.6.12 5 3.21 6.5 3.7.65.21 2.03 3.1 2.6 3.48.09.62-.46 6.38-.05 6.93.4.54.9 1 1.42 1.42.29.23 2.09.93 4.03 1.7a12.35 12.35 0 0 1-.99 4.55z"/><path style="fill:#284467" d="M102.06 312.77c-1.27-22.8-3.86-84.43-3.86-84.43s-6.47-13.37-5.38-16.85c1.09-3.48 18.25-4.82 18.25-4.82s2.77 7.3 4.34 13.81c1.22 5.02-2.4 83.81-3.04 92.2-.8-.05-4.76 2.68-10.31.1z"/><path style="fill:#f6dfc9" d="M98.33 159.07c.58.27 1.05.72 1.54 1.12.36.3.73.57 1.15.77-.57 0-1.12-.15-1.63-.47-.54-.35-1.02-.79-1.55-1.16-.5-.35-1.07-.6-1.66-.81.37.07.72.14 1.08.23.36.09.73.17 1.07.32zM107.15 159.46c-.6.21-1.11.62-1.63.98-.39.26-.79.5-1.22.66.57.06 1.13-.05 1.66-.33.58-.3 1.1-.7 1.65-1.02a6.8 6.8 0 0 1 1.72-.66c-.36.04-.73.08-1.1.14-.36.05-.73.1-1.08.23z"/><path style="fill:#315178" d="m100.67 229.45-11.93 83.77c-1.2-.6-5.24 1.92-9.5-1.55-.97-6.7 1.94-86.66 2.42-93.2.43-5.96 1.01-14.07 4.28-17.06 1.69 1 25.74.46 27.7 2.06-.08 2.42.29 10.28-2.55 13.9-2.33 2.96-10.42 12.08-10.42 12.08z"/><path style="fill:#203a59" d="M90.09 206.41c-.25 2.76-.54 5.51-1.01 8.24a38.84 38.84 0 0 1-2.1 7.83 17.4 17.4 0 0 1-3.97 6.2c-.34.33-.7.63-1.09.91.24-5.93.43-10.11.53-11.4.43-5.97 1.01-14.08 4.28-17.07.36.22 1.77.37 3.78.48-.15 1.6-.28 3.2-.42 4.81z"/><path style="fill:#f6dfc9" d="M89.27 132.39c.1 3.64.85 7.22 3.08 10.17a17.95 17.95 0 0 0 8.35 5.99c3.07 1.08 6.62 1.55 9.68.24 3.03-1.3 5.33-4.17 6.34-7.27.65-1.99.31-3.93-.1-5.93-.23-1.1-.45-2.18-.5-3.3-.06-1.1.08-2.21.24-3.3.29-2 .6-4.1-.06-6.06-.13-.39-.3-.76-.47-1.12-.12-.35-.25-.7-.4-1.05-1.22-2.94-3.12-3.86-6.1-5.09-3.19-1.32-7.18-2.82-10.35-1.51a15.26 15.26 0 0 0-7.7 7.34c-1.66 3.36-2.13 7.18-2.01 10.89z"/><path style="fill:#6b3f33" d="M112.08 134.08c.11-.52.33-1.03.76-.93.08.01.15.07.21.13.23.22.37.5.44.82.1.46.12.97 0 1.43-.06.21-.16.42-.34.56a.57.57 0 0 1-.65.05c-.4-.23-.47-.78-.5-1.2 0-.17.01-.51.08-.86z"/><path style="fill:#fff" d="M112.88 133.81a.4.4 0 0 1 .15-.23c.01-.01.05 0 .07 0l.05.05.02.02.01.02.06.15c.03.12.03.25 0 .37a.26.26 0 0 1-.08.14.14.14 0 0 1-.17.01c-.1-.06-.12-.2-.13-.3 0-.08 0-.15.02-.22z"/><path style="fill:#6b3f33" d="M99.8 133.59c.1-.52.33-1.03.76-.93.08.01.15.07.2.13.24.22.38.5.44.82.1.46.12.97 0 1.43-.06.21-.16.42-.34.56a.57.57 0 0 1-.64.05c-.4-.23-.48-.78-.5-1.2a4 4 0 0 1 .08-.86z"/><path style="fill:#fff" d="M100.6 133.32a.4.4 0 0 1 .14-.23h.08l.04.05.02.02.02.02.06.15a.8.8 0 0 1 0 .37.26.26 0 0 1-.09.14.14.14 0 0 1-.16.01c-.1-.06-.13-.2-.13-.3 0-.08 0-.15.02-.23z"/><path style="fill:#694312" d="M115.65 129.01c-.46.03-.9.24-1.3.46-.5.28-.96.62-1.4.98-.38.31-.75.65-1.1 1-.08-.05-.15-.14-.1-.21.16-.3.3-.6.48-.89.2-.32.42-.62.67-.9.44-.51.94-.96 1.53-1.3.45-.25 1.12-.56 1.58-.17.34.29.43.73.47 1.16v.1l.01.06c-.22-.2-.5-.3-.84-.29zM104.64 130.23a47.57 47.57 0 0 0-6.43-.43c.2-.35.6-.6.92-.8 1.08-.7 2.3-.65 3.5-.3.7.2 1.4.46 2.06.77a7.6 7.6 0 0 1 1.34.81l.1.09.02.02c-.5 0-1.03-.1-1.51-.16z"/><path style="fill:#f6dfc9" d="M110.1 140.3c.53-.37 1.15-.65 1.53-1.16.07-.1.2-.23.21-.35.02-.14-.11-.35-.18-.47-.16-.3-.36-.57-.5-.88a22.7 22.7 0 0 1-.74-1.63l-.03-.45c.3.77.68 1.54 1.07 2.25.27.49.8 1.04.63 1.65-.16.55-.7.86-1.18 1.09l-.44.21-.64.23c.1-.16.19-.33.27-.5z"/><path style="fill:#fff" d="M110.88 145.47s-3.89-.33-6.9-2.21c0 0-.14 2.54 2.58 3.31a4.23 4.23 0 0 0 4.32-1.1z"/><path style="fill:#87513c" d="M85.25 121.33c.79-1.78 2.1-3.3 3.66-4.43a13.77 13.77 0 0 1 5.25-2.36c.24-.47.58-.88.98-1.23 1.54-1.05 3.5-1.22 5.38-1.02 2.08.22 4.15.77 6.17 1.29 2.48.63 4.95 1.4 7.48 1.82 1.39.24 2.9-.15 4.23.42a5.08 5.08 0 0 1 2.87 5.5c-.96 4.85-7.46 5-11.18 4.24a98.78 98.78 0 0 1-5.26-1.25 11.3 11.3 0 0 1-3.55-1.44 26.85 26.85 0 0 0-5.3 6.04 25.4 25.4 0 0 0-3.46 7.4c-.21.8-.36 1.59-.4 2.41-.04.79-.03 1.57-.15 2.35-.03.2-.27.16-.4.08-.39-.26-.58-.7-.75-1.12-.23-.54-.5-1.04-.8-1.55a35.23 35.23 0 0 0-2.12-3.26 22.26 22.26 0 0 1-2-3.2c-.57-1.19-.99-2.48-1.25-3.78a11.5 11.5 0 0 1 .6-6.92z"/><path style="fill:#f6dfc9" d="M88.02 137.77c.45 1.58 1.17 3.05 2.52 4.02.58.42 1.39.83 2.09.46.77-.41.63-1.48.55-2.2-.11-.94-.23-1.93-.54-2.82-.14-.4-.33-.79-.54-1.15-.11-.32-.25-.61-.35-.84-.4-.93-1.22-2.1-2.36-2.04-.93.06-1.49.98-1.63 1.81-.17.92 0 1.88.26 2.76z"/><path style="fill:#f6dfc9" d="M88.48 135.74c.19-.4.58-.48.97-.32.52.22.89.7 1.17 1.18.3.5.51 1.05.7 1.6.27.82.4 1.75.32 2.61-.01.16-.24.05-.24-.07a15.9 15.9 0 0 0-.15-1.56.86.86 0 0 1-.19-.02 1.5 1.5 0 0 1-.29-.11c-.2-.1-.38-.23-.55-.38-.32-.27-.57-.6-.86-.9-.07-.08.03-.15.1-.09.26.27.54.55.83.8.15.12.31.23.48.31l.26.1.18.03a7.14 7.14 0 0 0-.99-2.43c-.24-.36-.82-1.1-1.32-.8-.39.23-.42.88-.35 1.27.01.06-.07.04-.09 0-.12-.38-.15-.85.02-1.22z"/><path style="fill:#458383" d="M107.96 156.75s2.27 4.2-5.04 4.88c-7.3.68-10.6-7.73-10.6-7.73s-5.43.61-8.65 1.77c-3.21 1.15-5.6 4.07-5.6 4.07l.41 62.74s8.86 2.59 21.94 2.22c13.19-.38 16.07-4.02 16.07-4.02s3.25-38.63 2.53-47.4c-.72-8.78-2.03-13.18-2.03-13.18l-9.03-3.35z"/><path style="fill:#458383" d="m107.96 156.75.34.12c.17.75.2 1.52.03 2.27a4.28 4.28 0 0 1-1.56 2.37c-1.58 1.24-3.76 1.5-5.7 1.24a10.55 10.55 0 0 1-5.54-2.35 12.86 12.86 0 0 1-3.8-6.36c.38-.1.6-.14.6-.14s3.28 8.41 10.6 7.73c7.3-.68 5.03-4.88 5.03-4.88z"/><path style="fill:#f6dfc9" d="M74.37 201.98c1.46-1.5 3.18-1.46 5.15-1.5.75-.01 1.51-.02 2.27-.01.65 0 1.33-.02 1.98.06.26.03.5.1.71.22a29.37 29.37 0 0 1 3.8 1.57c.59.3 1.16.6 1.68 1 .5.4.9.86 1.24 1.41.27.44.63.82.85 1.3.09.17.16.39.09.58-.07.18-.24.25-.41.26-.2.02-.4-.02-.6-.08-.93-.42-1.64-1.22-2.4-1.88a9.45 9.45 0 0 0-3.08-1.47l.25.18c.41.3.74.7 1.11 1.04.37.34.72.67 1 1.09.24.25.46.5.64.8.34.53.59 1.1.8 1.7l.27.67c.18.3.35.61.5.93.17.33.32.73.29 1.1-.04.44-.45.49-.8.39-.6-.17-.89-.69-1.12-1.21-.3-.68-.64-1.32-1.07-1.92a5.27 5.27 0 0 0-1.59-1.52l-.07-.04.1.1c.25.27.37.61.48.95.28.86.66 1.68 1 2.53.17.43.35.85.54 1.27.12.28.84 1.84.03 1.71a1.53 1.53 0 0 1-.64-.32 2.85 2.85 0 0 1-.64-.7 9.05 9.05 0 0 1-.88-1.88c-.13-.35-.25-.71-.43-1.04a3.2 3.2 0 0 0-.96-1.04 9.38 9.38 0 0 0-1.96-1.05c.22.16.43.32.64.5.91.72 1.27 1.65 1.72 2.68.22.5.57.92.77 1.42.11.3.18.73-.16.92-.25.13-.54-.04-.73-.2-.63-.54-.97-1.31-1.42-2-.5-.8-1.23-1.4-1.9-2.05-.56-.52-.91-.02-1.48.14-1.36.38-2.7-.17-3.83-.92-.98-.66-2.41-1.45-2.83-2.63-.4-1.11.35-2.29 1.1-3.06z"/><path style="opacity:.27;fill:#f6dfc9" d="M89.9 203.78a10.87 10.87 0 0 0-3.1-2.06 18.4 18.4 0 0 0-3.66-1.2l-.18-.05c.28.01.55.02.82.06.25.03.49.1.7.22a29.37 29.37 0 0 1 3.8 1.57c.59.3 1.16.6 1.68 1 .5.4.9.86 1.24 1.41.27.44.63.82.85 1.3a1 1 0 0 1 .12.42c-.7-.94-1.43-1.86-2.27-2.67zM89.66 209.35c-.3-.6-.68-1.19-1.06-1.76-.38-.57-.75-1.15-1.18-1.7-.44-.56-.92-1.11-1.47-1.58-.44-.38-.91-.72-1.35-1.11.43.03.85.18 1.24.39l.06.03c.4.3.74.7 1.11 1.04.36.34.72.67 1 1.09.24.25.45.5.64.8.33.53.59 1.1.8 1.7l.26.67c.19.3.36.61.52.93.15.33.3.73.27 1.1-.01.19-.1.3-.22.36a5.47 5.47 0 0 0-.62-1.96z"/><path style="fill:#f6dfc9" d="M86.22 206.9c-.4-.47-.85-.89-1.28-1.33a7.8 7.8 0 0 1 4.08 4.15c.12.28.2.56.31.83.12.29.32.66.6.82-.08 0-.16-.02-.23-.04-.59-.16-.88-.68-1.1-1.2-.3-.68-.66-1.32-1.08-1.92-.36-.52-.8-.96-1.3-1.32zM84.46 208.23a9.38 9.38 0 0 0-1.96-1.05 3.9 3.9 0 0 1-.82-.61c.75.13 1.49.36 2.17.7.72.34 1.4.8 1.91 1.43.58.7.83 1.6 1.16 2.42.17.42.35.84.6 1.22.16.25.4.47.67.6l.18.05c-.03.16-.13.26-.36.22a1.53 1.53 0 0 1-.64-.32 2.85 2.85 0 0 1-.64-.7 9.05 9.05 0 0 1-.88-1.88c-.13-.35-.25-.72-.43-1.04a3.2 3.2 0 0 0-.96-1.04zM87.9 204.37a9.45 9.45 0 0 0-1.88-.8l-.38-.25c.7.1 1.4.24 2.08.47a5.94 5.94 0 0 1 2.85 2.03c.2.28.4.58.67.81.12.1.27.2.42.24-.18 0-.36-.02-.54-.08-.92-.42-1.63-1.23-2.4-1.88a5.23 5.23 0 0 0-.81-.54zM71.3 202.65a164.4 164.4 0 0 0-2.5-3.1c-1.23-1.47-2.53-2.88-3.77-4.34a70.3 70.3 0 0 1-5.14-6.9c-.5-.8-.95-1.64-1.1-2.57a4 4 0 0 1 1.63-3.83 3.18 3.18 0 0 1 1.85-.54c.73.01 1.42.3 2.07.62 1.31.66 2.45 1.6 3.45 2.66 1.03 1.1 1.93 2.3 2.8 3.53 2.63 5.62 8.2 15.72 8.2 15.72l-3.54 2.5s-1.65-1.52-3.95-3.75z"/><path style="opacity:.27;fill:#f6dfc9" d="M88 212.22c-.14-.45-.3-.9-.49-1.34-.27-.63-.58-1.24-.77-1.91-.16-.6-.32-1.25-.69-1.76-.23-.33-.54-.6-.84-.86.21.09.41.23.59.36.13.1.25.2.36.32.12.2.2.44.28.66.28.87.66 1.7 1 2.53.17.44.35.86.53 1.28.11.26.73 1.6.2 1.7.05-.31-.08-.7-.17-.97zM85.63 211.78c.1.25.15.6-.03.81a5.6 5.6 0 0 0-.58-1.55c-.27-.52-.57-1-.84-1.52-.23-.44-.43-.85-.78-1.21-.52-.54-1.18-.9-1.77-1.37.37.1.73.22 1.07.4.15.1.3.21.44.33.91.73 1.27 1.66 1.72 2.7.22.49.57.9.77 1.4z"/><path style="fill:#efcaac" d="M111.99 206.9c.3-.53.74-.93 1.2-1.31a5.71 5.71 0 0 0 1.83-2.08c.31-.58.6-1.17.92-1.75.51-.97 1.05-1.93 1.49-2.94.28-.08.57-.15.86-.04.3.11.5.4.61.68.25.61.23 1.33.17 1.98-.04.41-.13.82-.25 1.21.2.1.34.3.46.49a3.02 3.02 0 0 1-.06 3.2c-.11.19-.23.36-.35.53.34.4.18 1.1.04 1.56-.18.59-.44 1.18-.84 1.67-.1.12-.2.23-.32.33.04.24.06.45 0 .7a2 2 0 0 1-.26.62c-.26.4-.63.72-1.06.93-.75.39-1.88.45-2.4-.35a.88.88 0 0 1-.13-.68c.03-.13.1-.24.17-.35l-.04-.02a.95.95 0 0 1-.54-.84c0-.37.23-.7.49-.97-.43-.13-.83-.39-1.17-.74a.15.15 0 0 1-.04-.16l.08-.19c-.28.04-.58.06-.84 0-.74-.16-.26-1.09-.02-1.49z"/><path style="fill:#f6dfc9" d="M111.99 206.9c.3-.53.74-.93 1.2-1.31a5.71 5.71 0 0 0 1.83-2.08c.31-.58.6-1.17.92-1.75.37-.7.75-1.39 1.1-2.1a14.82 14.82 0 0 1-1.3 3.68c-.33.66-.82 1.2-1.37 1.69-.53.48-1.13.92-1.58 1.48-.23.27-.4.57-.45.92-.03.2 0 .46.23.52.25.07.54-.08.75-.18.3-.14.57-.33.82-.54.53-.42.98-.92 1.45-1.4.49-.49 1.01-.94 1.51-1.41.5-.48 1.02-1 1.45-1.58l-.06.11c-.2.35-.42.7-.67 1-.47.58-1.02 1.07-1.54 1.6-.43.44-.85.91-1.33 1.31-.3.25-.6.49-.87.77-.08.09-.21.23-.3.37a1.5 1.5 0 0 0-.13.14c-.16.2-.25.5-.02.69.19.15.49.15.72.13a6.3 6.3 0 0 0 2.3-.88c.65-.36 1.33-.73 1.94-1.17l.23-.18a7.1 7.1 0 0 1-2.27 1.72c-.42.2-.86.35-1.27.56-.39.18-.78.4-1.06.74-.16.21-.33.52-.13.76.17.2.48.24.73.26a5.83 5.83 0 0 0 3.51-1.03 3.6 3.6 0 0 1-.46.58c-.28.18-.6.32-.92.43-.34.12-.7.2-1.05.28-.3.07-.63.1-.92.21-.28.1-.56.28-.62.6-.06.3.1.54.37.67.6.29 1.39.17 1.99 0l.04-.02c-.1.07-.21.14-.33.2-.75.38-1.88.44-2.4-.35a.88.88 0 0 1-.13-.7c.03-.12.1-.23.17-.34l-.04-.02a.95.95 0 0 1-.54-.84c0-.36.23-.7.5-.97-.44-.13-.84-.39-1.18-.74a.15.15 0 0 1-.04-.16l.08-.19c-.28.05-.58.07-.84 0-.74-.16-.26-1.09-.02-1.49z"/><path style="opacity:.27;fill:#f6dfc9" d="M117.47 210.89a.65.65 0 0 0-.18-.26c.22-.17.42-.36.6-.56a3.3 3.3 0 0 0 .94-2.29 1.3 1.3 0 0 0-.34-.9c.17-.2.3-.44.42-.67.36-.75.62-1.72.2-2.5-.18-.37-.5-.6-.86-.76.13-.21.24-.44.32-.68.35-.95.58-2.7-.2-3.45.25.12.43.38.53.65.25.6.23 1.33.17 1.97-.05.41-.13.82-.25 1.22.2.1.34.3.45.48a3.02 3.02 0 0 1-.06 3.2c-.1.19-.22.36-.34.53.34.41.18 1.1.04 1.56-.18.6-.44 1.19-.84 1.67-.1.12-.2.23-.32.33.04.24.06.46 0 .7a2 2 0 0 1-.26.62c-.22.34-.52.6-.86.82l.18-.15c.4-.37.9-.95.66-1.53z"/><path style="fill:#34696a" d="M117 160.1s1.72.62 4.46 3.51c2.74 2.9 12.28 23.42 12.28 23.42s-2.6 6.84-13.23 4.36l-1.64-5.69s.02-19.7-1.88-25.6z"/><path style="fill:#458383" d="M121.48 189.84c2.77.26 5.54-.3 8.01-1.55a9.83 9.83 0 0 0 3.54-2.77l.71 1.51s-2.6 6.84-13.23 4.36l-.5-1.77c.48.1.98.17 1.47.22z"/><path style="fill:#34696a" d="M79.83 157.24a17.1 17.1 0 0 1 5.48-1.96c.08.88.22 1.75.34 2.63.18 1.24.28 2.48.2 3.74-.13 2.27-.67 4.5-1.21 6.7a50.7 50.7 0 0 1-2.8 8.2c-2.34 3.43-7.16 11.04-7.16 11.04-10.9-.35-12.42-9.26-12.42-9.26s14.17-19 17.57-21.09z"/><path style="fill:#458383" d="M63.52 177.58a13.74 13.74 0 0 0 5.55 6.3c2.1 1.24 4.6 1.74 7.03 1.48l-1.42 2.23c-10.9-.35-12.43-9.26-12.43-9.26l1.02-1.36.25.61z"/></svg>