<svg width="96" height="40" viewBox="0 0 96 40" fill="none" xmlns="http://www.w3.org/2000/svg">
<path d="M55.96 6.57C55.9 6.68333 55.8133 6.74 55.7 6.74C55.6133 6.74 55.5 6.68 55.36 6.56C55.2267 6.43333 55.0433 6.29667 54.81 6.15C54.5767 5.99667 54.2833 5.85667 53.93 5.73C53.5833 5.60333 53.1533 5.54 52.64 5.54C52.1267 5.54 51.6733 5.61333 51.28 5.76C50.8933 5.90667 50.5667 6.10667 50.3 6.36C50.04 6.61333 49.84 6.90667 49.7 7.24C49.5667 7.57333 49.5 7.92333 49.5 8.29C49.5 8.77 49.6 9.16667 49.8 9.48C50.0067 9.79333 50.2767 10.06 50.61 10.28C50.9433 10.5 51.32 10.6867 51.74 10.84C52.1667 10.9867 52.6033 11.1333 53.05 11.28C53.4967 11.4267 53.93 11.59 54.35 11.77C54.7767 11.9433 55.1567 12.1633 55.49 12.43C55.8233 12.6967 56.09 13.0267 56.29 13.42C56.4967 13.8067 56.6 14.29 56.6 14.87C56.6 15.4633 56.4967 16.0233 56.29 16.55C56.09 17.07 55.7967 17.5233 55.41 17.91C55.0233 18.2967 54.55 18.6033 53.99 18.83C53.43 19.05 52.79 19.16 52.07 19.16C51.1367 19.16 50.3333 18.9967 49.66 18.67C48.9867 18.3367 48.3967 17.8833 47.89 17.31L48.17 16.87C48.25 16.77 48.3433 16.72 48.45 16.72C48.51 16.72 48.5867 16.76 48.68 16.84C48.7733 16.92 48.8867 17.02 49.02 17.14C49.1533 17.2533 49.3133 17.38 49.5 17.52C49.6867 17.6533 49.9033 17.78 50.15 17.9C50.3967 18.0133 50.68 18.11 51 18.19C51.32 18.27 51.6833 18.31 52.09 18.31C52.65 18.31 53.15 18.2267 53.59 18.06C54.03 17.8867 54.4 17.6533 54.7 17.36C55.0067 17.0667 55.24 16.72 55.4 16.32C55.56 15.9133 55.64 15.48 55.64 15.02C55.64 14.52 55.5367 14.11 55.33 13.79C55.13 13.4633 54.8633 13.1933 54.53 12.98C54.1967 12.76 53.8167 12.5767 53.39 12.43C52.97 12.2833 52.5367 12.14 52.09 12C51.6433 11.86 51.2067 11.7033 50.78 11.53C50.36 11.3567 49.9833 11.1367 49.65 10.87C49.3167 10.5967 49.0467 10.26 48.84 9.86C48.64 9.45333 48.54 8.94667 48.54 8.34C48.54 7.86667 48.63 7.41 48.81 6.97C48.99 6.53 49.2533 6.14333 49.6 5.81C49.9467 5.47 50.3733 5.2 50.88 5C51.3933 4.79333 51.9767 4.69 52.63 4.69C53.3633 4.69 54.02 4.80667 54.6 5.04C55.1867 5.27333 55.72 5.63 56.2 6.11L55.96 6.57ZM59.6883 4.45V13.32H60.1483C60.2416 13.32 60.3283 13.3067 60.4083 13.28C60.4949 13.2533 60.5883 13.19 60.6883 13.09L64.6783 9.3C64.7449 9.22 64.8183 9.16 64.8983 9.12C64.9783 9.07333 65.0783 9.05 65.1983 9.05H66.0383L61.6483 13.22C61.5283 13.36 61.3983 13.47 61.2583 13.55C61.3649 13.6033 61.4549 13.6667 61.5283 13.74C61.6083 13.8067 61.6849 13.8867 61.7583 13.98L66.3683 19H65.5383C65.4449 19 65.3583 18.9867 65.2783 18.96C65.2049 18.9267 65.1349 18.8633 65.0683 18.77L60.8883 14.29C60.8349 14.23 60.7816 14.18 60.7283 14.14C60.6816 14.1 60.6316 14.07 60.5783 14.05C60.5249 14.0233 60.4616 14.0067 60.3883 14C60.3216 13.9867 60.2383 13.98 60.1383 13.98H59.6883V19H58.7283V4.45H59.6883ZM68.9 9.05V19H67.95V9.05H68.9ZM69.31 5.62C69.31 5.74 69.2833 5.85333 69.23 5.96C69.1833 6.06 69.12 6.15 69.04 6.23C68.96 6.31 68.8667 6.37333 68.76 6.42C68.6533 6.46667 68.54 6.49 68.42 6.49C68.3 6.49 68.1867 6.46667 68.08 6.42C67.9733 6.37333 67.88 6.31 67.8 6.23C67.72 6.15 67.6567 6.06 67.61 5.96C67.5633 5.85333 67.54 5.74 67.54 5.62C67.54 5.5 67.5633 5.38667 67.61 5.28C67.6567 5.16667 67.72 5.07 67.8 4.99C67.88 4.91 67.9733 4.84667 68.08 4.8C68.1867 4.75333 68.3 4.73 68.42 4.73C68.54 4.73 68.6533 4.75333 68.76 4.8C68.8667 4.84667 68.96 4.91 69.04 4.99C69.12 5.07 69.1833 5.16667 69.23 5.28C69.2833 5.38667 69.31 5.5 69.31 5.62ZM72.9431 4.45V19H71.9831V4.45H72.9431ZM76.9572 4.45V19H75.9972V4.45H76.9572ZM56.24 27.06C56.1667 27.18 56.09 27.27 56.01 27.33C55.93 27.3833 55.83 27.41 55.71 27.41C55.5833 27.41 55.44 27.3567 55.28 27.25C55.1267 27.1433 54.9333 27.0267 54.7 26.9C54.4733 26.7667 54.2033 26.6467 53.89 26.54C53.5767 26.4267 53.2033 26.37 52.77 26.37C52.37 26.37 52.0167 26.42 51.71 26.52C51.41 26.62 51.1567 26.76 50.95 26.94C50.7433 27.12 50.5867 27.3333 50.48 27.58C50.38 27.82 50.33 28.0833 50.33 28.37C50.33 28.7367 50.4267 29.0433 50.62 29.29C50.8133 29.53 51.0667 29.7367 51.38 29.91C51.7 30.0833 52.0633 30.2367 52.47 30.37C52.8767 30.4967 53.29 30.6333 53.71 30.78C54.1367 30.9267 54.5533 31.0933 54.96 31.28C55.3667 31.4667 55.7267 31.7033 56.04 31.99C56.36 32.2767 56.6167 32.6267 56.81 33.04C57.0033 33.4533 57.1 33.9567 57.1 34.55C57.1 35.19 56.99 35.79 56.77 36.35C56.55 36.91 56.23 37.4 55.81 37.82C55.3967 38.2333 54.8833 38.56 54.27 38.8C53.6633 39.04 52.97 39.16 52.19 39.16C51.73 39.16 51.28 39.1133 50.84 39.02C50.4067 38.9333 49.99 38.81 49.59 38.65C49.1967 38.4833 48.8267 38.2833 48.48 38.05C48.1333 37.8167 47.8233 37.5567 47.55 37.27L48.23 36.15C48.29 36.0567 48.3667 35.9833 48.46 35.93C48.5533 35.8767 48.6567 35.85 48.77 35.85C48.9233 35.85 49.0933 35.9233 49.28 36.07C49.4667 36.21 49.69 36.3667 49.95 36.54C50.2167 36.7067 50.5367 36.8633 50.91 37.01C51.2833 37.15 51.73 37.22 52.25 37.22C53.0967 37.22 53.75 37.0133 54.21 36.6C54.6767 36.1867 54.91 35.6167 54.91 34.89C54.91 34.4833 54.8133 34.1533 54.62 33.9C54.4267 33.64 54.17 33.4233 53.85 33.25C53.5367 33.0767 53.1767 32.93 52.77 32.81C52.3633 32.69 51.95 32.5633 51.53 32.43C51.11 32.29 50.6967 32.13 50.29 31.95C49.8833 31.7633 49.52 31.5233 49.2 31.23C48.8867 30.93 48.6333 30.5633 48.44 30.13C48.2467 29.69 48.15 29.1433 48.15 28.49C48.15 27.97 48.25 27.4667 48.45 26.98C48.6567 26.4933 48.9533 26.0633 49.34 25.69C49.7333 25.31 50.2167 25.0067 50.79 24.78C51.3633 24.5533 52.0167 24.44 52.75 24.44C53.5767 24.44 54.3333 24.57 55.02 24.83C55.7133 25.09 56.31 25.46 56.81 25.94L56.24 27.06ZM60.8217 30.01C61.2417 29.5967 61.7017 29.2667 62.2017 29.02C62.7017 28.7667 63.2851 28.64 63.9517 28.64C64.5117 28.64 65.0017 28.7333 65.4217 28.92C65.8484 29.1067 66.2051 29.37 66.4917 29.71C66.7851 30.05 67.0051 30.46 67.1517 30.94C67.2984 31.4133 67.3717 31.9367 67.3717 32.51V39H65.2317V32.51C65.2317 31.8233 65.0717 31.29 64.7517 30.91C64.4384 30.53 63.9584 30.34 63.3117 30.34C62.8317 30.34 62.3851 30.45 61.9717 30.67C61.5651 30.89 61.1817 31.19 60.8217 31.57V39H58.6717V24.2H60.8217V30.01ZM74.9327 34.54C74.166 34.5667 73.5193 34.63 72.9927 34.73C72.466 34.8233 72.0393 34.9467 71.7127 35.1C71.386 35.2467 71.1493 35.4233 71.0027 35.63C70.8627 35.8367 70.7927 36.0633 70.7927 36.31C70.7927 36.55 70.8293 36.7567 70.9027 36.93C70.9827 37.0967 71.0893 37.2367 71.2227 37.35C71.3627 37.4567 71.5227 37.5367 71.7027 37.59C71.8893 37.6367 72.0927 37.66 72.3127 37.66C72.8727 37.66 73.3527 37.5567 73.7527 37.35C74.1593 37.1367 74.5527 36.83 74.9327 36.43V34.54ZM69.2327 30.22C70.386 29.1467 71.7593 28.61 73.3527 28.61C73.9393 28.61 74.4593 28.7067 74.9127 28.9C75.3727 29.0867 75.756 29.3533 76.0627 29.7C76.376 30.0467 76.6127 30.46 76.7727 30.94C76.9393 31.4133 77.0227 31.94 77.0227 32.52V39H76.0627C75.856 39 75.6993 38.97 75.5927 38.91C75.486 38.8433 75.396 38.7133 75.3227 38.52L75.1127 37.69C74.8527 37.9233 74.596 38.1333 74.3427 38.32C74.0893 38.5 73.826 38.6533 73.5527 38.78C73.286 38.9067 72.996 39 72.6827 39.06C72.376 39.1267 72.036 39.16 71.6627 39.16C71.2493 39.16 70.8627 39.1033 70.5027 38.99C70.1493 38.8767 69.8427 38.7067 69.5827 38.48C69.3227 38.2467 69.116 37.96 68.9627 37.62C68.816 37.28 68.7427 36.88 68.7427 36.42C68.7427 36.0267 68.846 35.6433 69.0527 35.27C69.266 34.8967 69.6127 34.5633 70.0927 34.27C70.5793 33.97 71.216 33.7233 72.0027 33.53C72.796 33.3367 73.7727 33.2267 74.9327 33.2V32.52C74.9327 31.7867 74.776 31.24 74.4627 30.88C74.1493 30.52 73.6893 30.34 73.0827 30.34C72.6693 30.34 72.3227 30.3933 72.0427 30.5C71.7627 30.6 71.5193 30.71 71.3127 30.83C71.106 30.95 70.9227 31.0633 70.7627 31.17C70.6027 31.27 70.4327 31.32 70.2527 31.32C70.106 31.32 69.9793 31.2833 69.8727 31.21C69.7727 31.13 69.6893 31.0333 69.6227 30.92L69.2327 30.22ZM81.1712 30.69C81.4912 30.0433 81.8779 29.5367 82.3312 29.17C82.7846 28.7967 83.3279 28.61 83.9612 28.61C84.1812 28.61 84.3879 28.6367 84.5812 28.69C84.7746 28.7367 84.9479 28.81 85.1012 28.91L84.9512 30.53C84.9246 30.6433 84.8812 30.7233 84.8212 30.77C84.7679 30.81 84.6946 30.83 84.6012 30.83C84.5012 30.83 84.3579 30.8133 84.1712 30.78C83.9846 30.74 83.7879 30.72 83.5812 30.72C83.2812 30.72 83.0146 30.7633 82.7812 30.85C82.5546 30.9367 82.3479 31.0633 82.1612 31.23C81.9812 31.3967 81.8212 31.6 81.6812 31.84C81.5412 32.08 81.4112 32.3533 81.2912 32.66V39H79.1412V28.8H80.3912C80.6179 28.8 80.7746 28.8433 80.8612 28.93C80.9479 29.01 81.0079 29.1533 81.0412 29.36L81.1712 30.69ZM92.4625 32.75C92.4625 32.39 92.4092 32.0567 92.3025 31.75C92.2025 31.4367 92.0525 31.1667 91.8525 30.94C91.6525 30.7067 91.4025 30.5267 91.1025 30.4C90.8092 30.2667 90.4692 30.2 90.0825 30.2C89.3025 30.2 88.6892 30.4233 88.2425 30.87C87.7958 31.3167 87.5125 31.9433 87.3925 32.75H92.4625ZM87.3325 34.07C87.3592 34.65 87.4492 35.1533 87.6025 35.58C87.7558 36 87.9592 36.35 88.2125 36.63C88.4725 36.91 88.7792 37.12 89.1325 37.26C89.4925 37.3933 89.8925 37.46 90.3325 37.46C90.7525 37.46 91.1158 37.4133 91.4225 37.32C91.7292 37.22 91.9958 37.1133 92.2225 37C92.4492 36.88 92.6425 36.7733 92.8025 36.68C92.9625 36.58 93.1092 36.53 93.2425 36.53C93.4158 36.53 93.5492 36.5967 93.6425 36.73L94.2525 37.52C93.9992 37.82 93.7125 38.0733 93.3925 38.28C93.0725 38.4867 92.7325 38.6567 92.3725 38.79C92.0125 38.9167 91.6425 39.0067 91.2625 39.06C90.8825 39.12 90.5125 39.15 90.1525 39.15C89.4458 39.15 88.7892 39.0333 88.1825 38.8C87.5825 38.56 87.0592 38.21 86.6125 37.75C86.1725 37.29 85.8258 36.72 85.5725 36.04C85.3258 35.36 85.2025 34.5767 85.2025 33.69C85.2025 32.9833 85.3125 32.3233 85.5325 31.71C85.7592 31.0967 86.0792 30.5633 86.4925 30.11C86.9125 29.6567 87.4192 29.3 88.0125 29.04C88.6125 28.7733 89.2892 28.64 90.0425 28.64C90.6692 28.64 91.2492 28.7433 91.7825 28.95C92.3158 29.15 92.7758 29.4467 93.1625 29.84C93.5492 30.2333 93.8492 30.7167 94.0625 31.29C94.2825 31.8567 94.3925 32.5033 94.3925 33.23C94.3925 33.5633 94.3558 33.7867 94.2825 33.9C94.2092 34.0133 94.0758 34.07 93.8825 34.07H87.3325Z" fill="#2C2E43"/>
<path fill-rule="evenodd" clip-rule="evenodd" d="M27.6285 11.7405H13.8321C6.83598 11.7405 3.33793 11.7405 1.37301 13.6693C-0.591911 15.5982 -0.129605 18.5783 0.795028 24.5383L1.67186 30.1903C2.39696 34.8641 2.75951 37.2011 4.61941 38.6006C6.47931 40.0001 9.22249 40.0001 14.7088 40.0001H26.7516C32.2381 40.0001 34.9813 40.0001 36.8412 38.6006C38.7012 37.2011 39.0635 34.8641 39.7887 30.1903L40.6656 24.5383C41.5901 18.5783 42.0524 15.5982 40.0876 13.6693C38.1226 11.7405 34.6246 11.7405 27.6285 11.7405ZM26.0812 27.8704C27.2388 27.1937 27.2388 25.4421 26.0812 24.7654L19.0918 20.6801C17.9667 20.0226 16.5842 20.8785 16.5842 22.2325V30.4033C16.5842 31.7573 17.9667 32.6132 19.0918 31.9557L26.0812 27.8704Z" fill="#FF6600"/>
<path opacity="0.4" d="M13.4944 0.952407H27.9661C28.448 0.95229 28.8176 0.952212 29.1406 0.981877C31.4374 1.19282 33.3175 2.48929 34.1146 4.23567H7.34583C8.14302 2.48929 10.023 1.19282 12.3198 0.981877C12.6428 0.952212 13.0124 0.95229 13.4944 0.952407Z" fill="#FF6600"/>
<path opacity="0.7" d="M8.94563 6.22876C6.06319 6.22876 3.69966 7.88304 2.91091 10.0777C2.89447 10.1234 2.87872 10.1694 2.86365 10.2156C3.68892 9.97807 4.5478 9.8229 5.41727 9.71697C7.65663 9.44412 10.4867 9.44425 13.7742 9.44443H28.0599C31.3474 9.44425 34.1775 9.44412 36.4167 9.71697C37.2863 9.8229 38.1452 9.97807 38.9704 10.2156C38.9555 10.1694 38.9395 10.1234 38.9232 10.0777C38.1345 7.88304 35.7709 6.22876 32.8885 6.22876H8.94563Z" fill="#FF6600"/>
</svg>
